<?xml version="1.0" encoding="utf-8"?>
<!-- Svg Vector Icons : http://www.onlinewebfonts.com/icon -->
<!DOCTYPE svg PUBLIC "-//W3C//DTD SVG 1.1//EN" "http://www.w3.org/Graphics/SVG/1.1/DTD/svg11.dtd">
<svg version="1.1" xmlns="http://www.w3.org/2000/svg" xmlns:xlink="http://www.w3.org/1999/xlink" x="0px" y="0px" viewBox="0 0 1000 1000" enable-background="new 0 0 1000 1000" xml:space="preserve">
<g><path fill="#444444" d="M951.5,309.3c-24.7-58.4-60-110.8-105-155.7c-45-45-97.4-80.3-155.7-105C630.3,23,566.1,10,500,10c-66.1,0-130.3,13-190.7,38.5c-58.4,24.7-110.8,60-155.7,105C130,177,94.4,226.2,76.3,253.6c29.7,19.2,17.5,15.1,49.1,34.7C206.2,162.3,350.2,68.5,500,68.5c237.9,0,431.5,193.6,431.5,431.5c0,237.9-193.6,431.5-431.5,431.5C262.1,931.5,68.5,737.9,68.5,500c0-3.4,0-6.7,0.1-10H10.1c-0.1,3.3-0.1,6.7-0.1,10c0,66.1,13,130.3,38.5,190.7c24.7,58.3,60,110.8,105,155.7c45,45,97.4,80.3,155.7,105C369.7,977,433.9,990,500,990c66.1,0,130.3-13,190.7-38.5c58.4-24.7,110.8-60,155.7-105c45-45,80.3-97.4,105-155.7C977,630.3,990,566.1,990,500C990,433.9,977,369.7,951.5,309.3z"/><path fill="#444444" d="M49.3,340.6l6.9-241.4l58.5,1.7L110,263.8L258.4,224l15.2,56.5L49.3,340.6z"/><path fill="#444444" d="M792.4,540.4H464.9V148.3h70.2v321.9h257.3V540.4z"/></g>
</svg>