<?xml version="1.0" encoding="utf-8"?>
<!-- Svg Vector Icons : http://www.onlinewebfonts.com/icon -->
<!DOCTYPE svg PUBLIC "-//W3C//DTD SVG 1.1//EN" "http://www.w3.org/Graphics/SVG/1.1/DTD/svg11.dtd">
<svg version="1.1" xmlns="http://www.w3.org/2000/svg" xmlns:xlink="http://www.w3.org/1999/xlink" x="0px" y="0px" viewBox="0 0 1000 1000" enable-background="new 0 0 1000 1000" xml:space="preserve">
<g><path fill="#444444" d="M895.1,42.5H104.8c-52.3,0-94.8,41-94.8,91.6V666c0,50.6,42.5,90.7,94.8,90.7h790.3c52.4,0,94.9-40.1,94.9-90.7V134.1C990,83.5,947.5,42.5,895.1,42.5z M544.9,734.8h-65.3v-65.3h65.3V734.8z M926.8,569.1c0,33.7-28.3,62-63.2,62H136.5c-35,0-63.2-28.3-63.2-62V164.6c0-33.8,28.3-62,63.2-62h727.1c34.9,0,63.2,28.3,63.2,62V569.1z M642.6,894.6v-80l-284.9,0.3v82.2L300.1,927c0,0-19.1,31.5,9.2,30.5h380.3c0,0,26.4-12.7,13.1-25.4C689.7,919.3,642.6,894.6,642.6,894.6z"/></g>
</svg>