<svg id="Capa_1" enable-background="new 0 0 507 507" height="512" viewBox="0 0 507 507" width="512" xmlns="http://www.w3.org/2000/svg"><path id="XMLID_911_" d="m18.39 0h284.271v507h-284.271z" fill="#afb4c8"/><path id="XMLID_910_" d="m160.526 0h142.135v507h-142.135z" fill="#7e8596"/><path id="XMLID_904_" d="m109.526 377h102v30h-102z" fill="#7e8596"/><path id="XMLID_898_" d="m160.526 377h51v30h-51z" fill="#555a66"/><path id="XMLID_1272_" d="m240.863 374.658v85.287c0 10.363 7.008 24.983 40.391 35.788 22.449 7.266 52.097 11.267 83.482 11.267s61.034-4.001 83.483-11.267c33.383-10.805 40.391-25.426 40.391-35.788v-85.287z" fill="#cdd2e1"/><path id="XMLID_1271_" d="m364.736 374.658v132.342c31.386 0 61.034-4.001 83.483-11.267 33.383-10.805 40.391-25.426 40.391-35.788v-85.287z" fill="#afb4c8"/><path id="XMLID_1270_" d="m448.219 338.869c-22.449-7.266-52.097-11.267-83.483-11.267s-61.034 4.001-83.483 11.267c-33.383 10.805-40.391 25.426-40.391 35.788 0 10.363 7.008 24.983 40.391 35.788 22.449 7.266 52.097 11.267 83.483 11.267s61.034-4.001 83.483-11.267c33.383-10.805 40.391-25.426 40.391-35.788s-7.008-24.983-40.391-35.788z" fill="#afb4c8"/><g fill="#7e8596"><path id="XMLID_1268_" d="m448.219 338.869c-22.449-7.266-52.097-11.267-83.483-11.267v94.111c31.386 0 61.034-4.001 83.483-11.267 33.383-10.805 40.391-25.426 40.391-35.788 0-10.363-7.008-24.984-40.391-35.789z"/><path id="XMLID_107_" d="m436.859 465.356h-.22c-8.284 0-15-6.716-15-15s6.716-15 15-15h.22c8.284 0 15 6.716 15 15s-6.716 15-15 15z"/><path id="XMLID_909_" d="m91.526 70h138v30h-138z"/><path id="XMLID_908_" d="m91.526 130h138v30h-138z"/><path id="XMLID_907_" d="m91.526 190h138v30h-138z"/><path id="XMLID_903_" d="m160.665 305.667h-.278c-8.284 0-15-6.716-15-15s6.716-15 15-15h.278c8.284 0 15 6.716 15 15s-6.716 15-15 15z"/></g><path id="XMLID_902_" d="m160.526 70h69v30h-69z" fill="#555a66"/><path id="XMLID_901_" d="m160.526 130h69v30h-69z" fill="#555a66"/><path id="XMLID_900_" d="m160.526 190h69v30h-69z" fill="#555a66"/><path id="XMLID_899_" d="m160.665 275.667h-.139v30h.139c8.284 0 15-6.716 15-15s-6.716-15-15-15z" fill="#555a66"/></svg>