<?xml version="1.0" encoding="utf-8"?>
<!-- Svg Vector Icons : http://www.onlinewebfonts.com/icon -->
<!DOCTYPE svg PUBLIC "-//W3C//DTD SVG 1.1//EN" "http://www.w3.org/Graphics/SVG/1.1/DTD/svg11.dtd">
<svg version="1.1" xmlns="http://www.w3.org/2000/svg" xmlns:xlink="http://www.w3.org/1999/xlink" x="0px" y="0px" viewBox="0 0 1000 1000" enable-background="new 0 0 1000 1000" xml:space="preserve">
<g><path fill="#555555" d="M195.8,562.4c-99.8,87-118.2,258.2-120.3,358.3c97.5,95,718.2,89.7,847.1,0c12.4-114.1-38-289-116.5-363.2c-30.3,0-58.5,0.1-85.2,0.2c-23.1,1.7-42.6-0.3-57.3-7.6c-16.8-17.5-27.3-46.7-34-82.8c21.1-23.8,37.9-53.2,47.9-86c12.8-7,22.2-18.7,28.7-34.5c6.8-17.1,10-39.4,9.6-65.8l-0.1-8.5l-7.1-4.7c-2.7-1.8-5.4-3.5-8.1-4.9c14-103.3-4.9-172.2-57.8-210.9c-78-57.1-224.1-56.7-301.1,6.4c-49.4,40.5-62.6,93.1-46.9,206.8c-1.4,0.8-2.7,1.7-4.1,2.6l-7.1,4.7l-0.1,8.5c-0.4,26.9,2.9,49.5,10,66.8c6.7,15.9,16.5,27.5,29.7,34.2c10.8,35.1,29.4,66.3,52.7,90.9c-5.6,28-13.6,51.4-25.4,68.1c-14.6,17.4-36,23.8-62.9,21.3C259.1,562.3,228.7,562.4,195.8,562.4z"/></g>
</svg>