<?xml version="1.0" encoding="iso-8859-1"?>
<!-- Generator: Adobe Illustrator 19.0.0, SVG Export Plug-In . SVG Version: 6.00 Build 0)  -->
<svg version="1.1" id="Layer_1" xmlns="http://www.w3.org/2000/svg" xmlns:xlink="http://www.w3.org/1999/xlink" x="0px" y="0px"
	 viewBox="0 0 512 512" style="enable-background:new 0 0 512 512;" xml:space="preserve">
<g>
	<g>
		<path style="fill:#556080;" d="M428.429,437.971v-45.26V252.836c0-95.078-77.352-172.429-172.429-172.429c-95.078,0-172.429,77.352-172.429,172.429
			v139.875v45.26H48.685V512h414.629v-74.029H428.429z M98.794,252.836C98.794,166.152,169.316,95.63,256,95.63
			s157.206,70.522,157.206,157.206v139.875H98.794V252.836z M98.794,407.934h314.413v30.037H98.794V407.934z M448.091,496.777
			H63.908v-7.592H177.2v-15.223H63.908v-20.768h19.663H428.43h19.661V496.777z"/>
	</g>
</g>
<g>
	<g>
		<path style="fill:#556080;" d="M312.269,118.304l-5.867,14.048c26.823,11.202,49.461,31.355,63.747,56.744l13.266-7.464
			C367.475,153.299,342.208,130.809,312.269,118.304z"/>
	</g>
</g>
<g>
	<g>
		<path style="fill:#556080;" d="M389.792,194.383l-13.934,6.131c3.19,7.246,5.726,14.822,7.539,22.519l14.817-3.49
			C396.188,210.943,393.354,202.478,389.792,194.383z"/>
	</g>
</g>
<g>
	<g>
		<rect style="fill:#556080;" x="248.388" width="15.223" height="41.691"/>
	</g>
</g>
<g>
	<g>
		<rect style="fill:#556080;" x="466.504" y="244.583" width="41.691" height="15.223"/>
	</g>
</g>
<g>
	<g>
		<rect style="fill:#556080;" x="3.806" y="244.583" width="41.691" height="15.223"/>
	</g>
</g>
<g>
	<g>
		<rect style="fill:#556080;" x="398.738" y="80.986" transform="matrix(0.7071 -0.7071 0.7071 0.7071 60.2453 322.6399)" width="41.69" height="15.223"/>
	</g>
</g>
<g>
	<g>
		<rect style="fill:#556080;" x="84.794" y="67.762" transform="matrix(0.7071 -0.7071 0.7071 0.7071 -35.59 91.2928)" width="15.223" height="41.69"/>
	</g>
</g>
<g>
	<g>
		<rect style="fill:#556080;" x="188.999" y="473.963" width="45.257" height="15.223"/>
	</g>
</g>
<g>
</g>
<g>
</g>
<g>
</g>
<g>
</g>
<g>
</g>
<g>
</g>
<g>
</g>
<g>
</g>
<g>
</g>
<g>
</g>
<g>
</g>
<g>
</g>
<g>
</g>
<g>
</g>
<g>
</g>
</svg>
