<?xml version="1.0" encoding="UTF-8" standalone="no"?>
<!-- Generator: Adobe Illustrator 16.0.0, SVG Export Plug-In . SVG Version: 6.00 Build 0)  -->

<svg
   version="1.1"
   id="Layer_1"
   x="0px"
   y="0px"
   width="100"
   height="100"
   viewBox="0 0 100 99.999996"
   enable-background="new 0 0 100.17 150.253"
   xml:space="preserve"
   sodipodi:docname="arrow-orange.svg"
   inkscape:version="1.2.1 (9c6d41e410, 2022-07-14)"
   xmlns:inkscape="http://www.inkscape.org/namespaces/inkscape"
   xmlns:sodipodi="http://sodipodi.sourceforge.net/DTD/sodipodi-0.dtd"
   xmlns="http://www.w3.org/2000/svg"
   xmlns:svg="http://www.w3.org/2000/svg"><defs
   id="defs14646" /><sodipodi:namedview
   id="namedview14644"
   pagecolor="#ffffff"
   bordercolor="#000000"
   borderopacity="0.25"
   inkscape:showpageshadow="2"
   inkscape:pageopacity="0.0"
   inkscape:pagecheckerboard="0"
   inkscape:deskcolor="#d1d1d1"
   showgrid="false"
   inkscape:zoom="4.8331723"
   inkscape:cx="78.002599"
   inkscape:cy="42.001399"
   inkscape:window-width="2560"
   inkscape:window-height="1377"
   inkscape:window-x="-8"
   inkscape:window-y="-8"
   inkscape:window-maximized="1"
   inkscape:current-layer="Layer_1" />

<style
   id="style14661">.st1{display:none}</style><circle
   cx="50.225765"
   cy="49.708504"
   id="circle2429-9-2"
   style="fill:#ffffff;fill-opacity:1;stroke-width:0.692305"
   r="37.5" /><g
   style="fill:#ff6600"
   id="g14696"
   transform="matrix(3.5,0,0,3.5,8.3108547,7.6901443)"><circle
     id="primary"
     cx="12"
     cy="12"
     r="10"
     style="fill:#ff7f2a" /><rect
     id="secondary"
     x="9"
     y="9"
     width="6"
     height="6"
     rx="3"
     transform="rotate(90,12,12)"
     style="fill:#ffffff" /></g><circle
   cx="50.484444"
   cy="49.863728"
   id="circle2429"
   style="fill:#ff7f2a;fill-opacity:1;stroke-width:0.212307"
   r="11.5" /><g
   style="fill:#ffffff"
   id="g74949"
   transform="matrix(1.5209142,0,0,1.532544,32.618208,32.121011)"><path
     d="M 10.65,19.11 V 4.89 C 10.65,3.54 10.08,3 8.64,3 H 5.01 C 3.57,3 3,3.54 3,4.89 V 19.11 C 3,20.46 3.57,21 5.01,21 h 3.63 c 1.44,0 2.01,-0.54 2.01,-1.89 z"
     fill="#292d32"
     id="path74937"
     style="fill:#ffffff" /><path
     d="M 21.0016,19.11 V 4.89 c 0,-1.35 -0.57,-1.89 -2.01,-1.89 h -3.63 c -1.43,0 -2.01,0.54 -2.01,1.89 v 14.22 c 0,1.35 0.57,1.89 2.01,1.89 h 3.63 c 1.44,0 2.01,-0.54 2.01,-1.89 z"
     fill="#292d32"
     id="path74939"
     style="fill:#ffffff" /></g></svg>
