<?xml version="1.0" encoding="utf-8"?>
<!-- Generator: Adobe Illustrator 25.4.1, SVG Export Plug-In . SVG Version: 6.00 Build 0)  -->
<svg version="1.1" id="Layer_1" xmlns="http://www.w3.org/2000/svg" xmlns:xlink="http://www.w3.org/1999/xlink" x="0px" y="0px"
	 viewBox="0 0 350 500" style="enable-background:new 0 0 350 500;" xml:space="preserve">
<style type="text/css">
	.st0{stroke:#191919;stroke-width:14;}
	.st1{fill:#FF0000;}
	.st2{opacity:0.9;fill:#262626;enable-background:new    ;}
	.st3{opacity:0.5;enable-background:new    ;}
	.st4{fill:#212121;stroke:#191919;stroke-width:5;}
	.st5{opacity:0.5;fill:none;stroke:#292929;stroke-width:6;stroke-linecap:round;stroke-linejoin:round;enable-background:new    ;}
	.st6{fill:url(#SVGID_1_);}
	.st7{fill:url(#SVGID_00000137108921319246164200000015558717655560532107_);}
	.st8{fill:url(#SVGID_00000145775614935452929850000014247845826244609702_);}
	.st9{fill:url(#SVGID_00000026855149885433900000000003046140657667174538_);}
	.st10{fill:url(#SVGID_00000047051977145929662810000002360193078950767537_);}
	.st11{fill:url(#SVGID_00000173129485695828377830000005756439331876154285_);}
	.st12{fill:url(#SVGID_00000139258155804964186300000013496249534844870075_);}
	.st13{fill:url(#SVGID_00000014602435829983696600000001273500547772528795_);}
	.st14{fill:url(#SVGID_00000034072245464972114570000013344056013624307123_);}
	.st15{opacity:0.9;fill:#191919;enable-background:new    ;}
	.st16{opacity:0.9;fill:#262626;stroke:#191919;stroke-width:5;enable-background:new    ;}
	.st17{fill:url(#SVGID_00000074440378772059233900000017988290835398346117_);}
	.st18{fill:url(#SVGID_00000137124082679145017210000010469629436484995489_);}
	.st19{fill:url(#SVGID_00000116235915056916319290000000427753282754078864_);}
	.st20{fill:url(#SVGID_00000137130083839979003150000013921233950001370507_);}
	.st21{fill:url(#SVGID_00000062886980593472666150000009344082868020376739_);}
	.st22{fill:url(#SVGID_00000051346993090733797360000014488187544591637902_);}
	.st23{fill:url(#SVGID_00000081648412105172356060000011562917586444318142_);}
	.st24{fill:url(#SVGID_00000005981449478567836390000012585620226366818200_);}
	.st25{fill:url(#SVGID_00000173840388716721706540000009283496728914635688_);}
</style>
<path class="st0" d="M58.58,210.92c0,0.76,0.15,2.37,0.45,3.28l0.76,1.76l18.09-4.38l0.15,62.9c0,1.21,0,2.47,0,3.68
	c0,2.47-0.05,4.99-0.1,7.46c-0.1,3.68-0.2,7.41-0.35,11.14c0,0.2,0,0.4-0.05,0.6c-0.3,7.51-0.76,15.12-1.21,22.68
	c-0.66,10.23-1.36,20.41-1.97,30.29c-0.45,7.31-0.81,14.46-1.01,21.37c-0.15,4.74-0.25,9.32-0.2,13.71c0,2.17,0.05,4.33,0.1,6.4
	c0.05,2.12,0.2,4.23,0.35,6.4c0.1,1.06,0.15,2.17,0.25,3.23c0.3,3.28,0.66,6.55,1.11,9.88l0,0c0.3,2.22,0.6,4.38,0.96,6.6
	c0.35,2.17,0.71,4.38,1.11,6.5c0.4,2.17,0.81,4.28,1.21,6.35l0,0c0.2,1.06,0.4,2.07,0.6,3.07c0.6,3.07,1.26,6,1.92,8.82l0,0
	c0.4,1.86,0.86,3.68,1.26,5.39c0.81,3.48,1.61,6.6,2.37,9.32c1.06,4.08,1.97,7.26,2.52,9.12c0.35,1.26,0.55,1.92,0.55,1.92l1.92,6.9
	c0.1,0.45,0.35,0.91,0.66,1.31c0.1,0.15,0.2,0.3,0.35,0.4c0.5,0.55,1.16,1.11,1.92,1.61l0,0c0.4,0.25,0.81,0.5,1.31,0.76l0,0
	c0.45,0.25,0.96,0.5,1.51,0.71l0,0c4.28,1.86,10.63,3.33,18.24,4.49l0,0c0.1,0,0.25,0.05,0.35,0.05c1.66,0.25,3.43,0.5,5.19,0.71
	c0.1,0,0.25,0.05,0.35,0.05c2.02,0.25,4.13,0.45,6.3,0.71l0,0c1.06,0.1,2.17,0.2,3.28,0.3l0,0c1.11,0.1,2.17,0.2,3.33,0.3l0,0
	c2.22,0.2,4.49,0.35,6.8,0.5l0,0c6.9,0.45,14.01,0.76,20.97,0.91l0,0c4.64,0.1,9.17,0.15,13.56,0.15c0.5,0,1.01,0,1.46,0
	c0.5,0,1.01,0,1.46,0c4.38,0,8.92-0.05,13.56-0.15l0,0c6.96-0.15,14.06-0.45,20.97-0.91l0,0c2.32-0.15,4.59-0.3,6.8-0.5l0,0
	c1.11-0.1,2.22-0.2,3.33-0.3l0,0c1.11-0.1,2.17-0.2,3.28-0.3l0,0c2.17-0.2,4.23-0.45,6.3-0.71c0.1,0,0.25-0.05,0.35-0.05
	c1.76-0.2,3.53-0.45,5.19-0.71c0.1,0,0.25-0.05,0.35-0.05l0,0c7.61-1.16,13.96-2.67,18.24-4.49l0,0c0.55-0.25,1.01-0.45,1.51-0.71
	l0,0c0.45-0.25,0.91-0.5,1.31-0.76l0,0c0.81-0.5,1.46-1.06,1.92-1.61c0.15-0.15,0.25-0.3,0.35-0.4c0.3-0.4,0.55-0.86,0.66-1.31
	l1.92-6.9c0,0,0.2-0.66,0.55-1.92c0.55-1.86,1.46-5.04,2.52-9.12c0.71-2.72,1.51-5.9,2.37-9.32c0.4-1.71,0.86-3.53,1.26-5.39l0,0
	c0.66-2.82,1.26-5.75,1.92-8.82c0.2-1.01,0.4-2.02,0.6-3.07l0,0c0.4-2.07,0.81-4.18,1.21-6.35c0.4-2.17,0.76-4.33,1.11-6.5
	c0.35-2.17,0.66-4.38,0.96-6.6l0,0c0.45-3.28,0.81-6.6,1.11-9.88c0.1-1.11,0.15-2.17,0.25-3.23c0.15-2.17,0.25-4.28,0.35-6.4
	c0.05-2.12,0.1-4.23,0.1-6.4c0.05-4.44-0.05-9.02-0.2-13.71c-0.2-6.85-0.55-14.01-1.01-21.37c-0.6-9.88-1.31-20.06-1.97-30.29
	c-0.45-7.56-0.91-15.17-1.21-22.68c0-0.2,0-0.4-0.05-0.6c-0.15-3.73-0.3-7.46-0.35-11.14c-0.05-2.52-0.1-4.99-0.1-7.46
	c0-1.26,0-2.47,0-3.68l0.15-62.9l18.09,4.38l0.76-1.76c0.3-0.86,0.45-2.52,0.45-3.28c0-0.4-0.05-0.91-0.1-1.36
	c-0.05-0.15-0.05-0.3-0.1-0.45c-0.05-0.15-0.1-0.3-0.1-0.45c-0.1-0.3-0.2-0.66-0.35-0.96c-0.4-0.91-0.96-1.76-1.66-2.42l0,0
	c-0.35-0.3-0.76-0.55-1.16-0.76l-15.78-6.15l0.1-55.39c0.2-0.35,0.35-0.76,0.55-1.11c0.71-1.51,1.31-2.97,1.81-4.44
	c0.25-0.76,0.5-1.46,0.71-2.22c0.76-2.57,1.31-5.14,1.61-7.71c0.2-1.46,0.35-2.97,0.45-4.49c0.05-0.76,0.1-1.51,0.1-2.32
	c0.05-1.56,0.1-3.07,0.1-4.69c0.05-3.18,0-6.55,0-10.08c0-5.24-0.25-10.23-0.81-15.02c-0.2-1.92-0.45-3.78-0.76-5.59
	c-0.55-3.68-1.31-7.16-2.22-10.53c-0.2-0.86-0.45-1.66-0.71-2.52c-0.71-2.47-1.51-4.84-2.42-7.16c-0.3-0.76-0.6-1.51-0.91-2.27
	c-0.6-1.51-1.31-2.97-1.97-4.38c-0.35-0.71-0.71-1.41-1.06-2.12c-0.71-1.41-1.51-2.77-2.32-4.08c-0.4-0.66-0.81-1.31-1.21-1.97
	c-2.07-3.23-4.33-6.25-6.8-9.02c-1.97-2.22-4.08-4.33-6.3-6.3l0,0c-0.55-0.5-1.11-0.96-1.66-1.46l0,0
	c-0.55-0.45-1.16-0.96-1.71-1.41l0,0c-1.76-1.36-3.53-2.67-5.39-3.88l0,0c-0.6-0.4-1.26-0.81-1.86-1.21l0,0
	c-1.92-1.16-3.88-2.32-5.9-3.33l0,0c-0.66-0.35-1.36-0.66-2.02-1.01l0,0c-0.71-0.35-1.36-0.66-2.07-0.96l0,0
	c-1.41-0.6-2.82-1.21-4.23-1.81l0,0c-0.71-0.3-1.46-0.55-2.17-0.81l0,0c-0.71-0.25-1.46-0.55-2.22-0.81
	c-0.76-0.25-1.46-0.5-2.22-0.76l0,0c-0.76-0.25-1.51-0.45-2.27-0.71l0,0c-0.76-0.2-1.51-0.45-2.32-0.66l0,0
	c-2.32-0.6-4.69-1.21-7.11-1.66l0,0c-0.81-0.15-1.61-0.3-2.42-0.45l0,0c-5.7-1.06-11.64-1.76-17.74-2.12l0,0
	c-0.86-0.05-1.76-0.1-2.62-0.1l0,0c-1.76-0.05-3.53-0.1-5.34-0.15l0,0c-0.91,0-1.81,0-2.72,0c-0.3,0-0.66,0-0.96,0
	c-0.3,0-0.66,0-0.96,0c-0.91,0-1.81,0-2.72,0l0,0c-1.81,0-3.58,0.05-5.34,0.15l0,0c-0.86,0.05-1.76,0.1-2.62,0.1l0,0
	c-6.15,0.35-12.05,1.06-17.74,2.12l0,0c-0.81,0.15-1.61,0.3-2.42,0.45l0,0c-2.42,0.5-4.79,1.06-7.11,1.66l0,0
	c-0.76,0.2-1.56,0.4-2.32,0.66l0,0c-0.76,0.2-1.51,0.45-2.27,0.71l0,0c-0.76,0.25-1.51,0.5-2.22,0.76c-0.76,0.25-1.46,0.5-2.22,0.81
	l0,0c-0.71,0.25-1.46,0.55-2.17,0.81l0,0c-1.46,0.55-2.82,1.16-4.23,1.81l0,0c-0.71,0.3-1.36,0.66-2.07,0.96l0,0
	c-0.71,0.35-1.36,0.66-2.02,1.01l0,0c-2.02,1.06-3.98,2.17-5.9,3.33l0,0c-0.66,0.4-1.26,0.81-1.86,1.21l0,0
	c-1.86,1.21-3.68,2.52-5.39,3.88l0,0c-0.55,0.45-1.16,0.91-1.71,1.41l0,0c-0.55,0.45-1.11,0.96-1.66,1.46l0,0
	c-2.22,1.97-4.28,4.08-6.3,6.3c-2.47,2.77-4.74,5.8-6.8,9.02c-0.4,0.66-0.81,1.31-1.21,1.97c-0.81,1.31-1.56,2.67-2.32,4.08
	c-0.35,0.71-0.71,1.41-1.06,2.12c-0.71,1.41-1.36,2.87-1.97,4.38c-0.3,0.76-0.6,1.51-0.91,2.27c-0.91,2.32-1.71,4.69-2.42,7.16
	c-0.25,0.81-0.45,1.66-0.71,2.52c-0.91,3.38-1.61,6.85-2.22,10.53c-0.3,1.81-0.55,3.68-0.76,5.59c-0.5,4.79-0.81,9.78-0.81,15.02
	c0,3.53-0.05,6.9,0,10.08c0,1.61,0.05,3.18,0.1,4.69c0.05,0.76,0.05,1.56,0.1,2.32c0.1,1.51,0.25,3.02,0.45,4.49
	c0.35,2.62,0.86,5.14,1.61,7.71c0.2,0.76,0.45,1.46,0.71,2.22c0.5,1.46,1.11,2.97,1.81,4.44c0.15,0.35,0.35,0.76,0.55,1.11
	l0.1,55.39l-16.03,6.15c-0.4,0.2-0.81,0.4-1.16,0.76l0,0c-0.71,0.6-1.26,1.51-1.66,2.42c-0.15,0.3-0.25,0.6-0.35,0.96
	c-0.05,0.15-0.1,0.3-0.1,0.45c-0.05,0.15-0.1,0.3-0.1,0.45C58.63,210.06,58.58,210.51,58.58,210.92L58.58,210.92L58.58,210.92z"/>
<path class="st1" d="M58.58,210.92c0,0.76,0.15,2.37,0.45,3.28l0.76,1.76l18.04-4.38l0.15,62.9c0.1,39.31-5.8,83.92-4.79,117.38
	c1.01,33.47,14.11,76.66,14.11,76.66l1.92,6.9c2.67,9.73,49.09,12.95,84.07,12.95c0.55,0,1.16,0,1.71,0s1.16,0,1.71,0
	c34.98,0,81.4-3.28,84.07-12.95l1.92-6.9c0,0,13.1-43.19,14.11-76.66c1.01-33.47-4.89-78.12-4.79-117.38l0.15-62.9l18.04,4.38
	l0.76-1.76c0.3-0.86,0.45-2.52,0.45-3.28c0-0.4-0.05-0.91-0.1-1.36c-0.05-0.15-0.05-0.3-0.1-0.45c-0.05-0.15-0.1-0.3-0.1-0.45
	c-0.1-0.3-0.2-0.66-0.35-0.96c-0.4-0.91-0.96-1.76-1.66-2.42l0,0c-0.35-0.3-0.76-0.55-1.16-0.76l-15.72-6.15l0.05-55.39
	c6-12.05,5.39-22.93,5.39-37.09c0-67.13-43.65-94.55-101.51-94.25c-0.4,0-0.81,0-1.16,0c-0.4,0-0.81,0-1.16,0
	c-57.86-0.3-101.51,27.06-101.51,94.25c0,14.16-0.6,25.05,5.39,37.09l0.1,55.39l-15.72,6.15c-0.4,0.2-0.81,0.4-1.16,0.76l0,0
	c-0.71,0.6-1.26,1.51-1.66,2.42c-0.15,0.3-0.25,0.6-0.35,0.96c-0.05,0.15-0.1,0.3-0.1,0.45c-0.05,0.15-0.1,0.3-0.1,0.45
	C58.63,210.06,58.58,210.51,58.58,210.92L58.58,210.92L58.58,210.92z"/>
<path class="st2" d="M240.77,316.86c0,16.83,0.91,32.91,2.57,47.78c24.54-12.95,15.27-49.39,15.88-103.62
	c0.3-25.05,0.96-45.11,1.21-61.24C248.69,223.57,240.77,267.06,240.77,316.86L240.77,316.86z"/>
<path class="st3" d="M240.77,316.86c0,1.61,0,3.23,0.05,4.84c8.16-0.4,15.27-3.23,19.56-7.36c-0.05-2.37-0.1-4.79-0.15-7.26
	c-4.13,4.33-11.19,7.36-19.45,7.91C240.77,315.6,240.82,316.2,240.77,316.86L240.77,316.86z"/>
<path class="st4" d="M226.81,20.15l0.3,2.57c1.26,10.84,13.1,19,27.47,19.81l3.58,0.2l-2.42-2.62
	c-7.41-8.01-16.38-14.26-26.61-18.85L226.81,20.15L226.81,20.15z"/>
<path class="st5" d="M232.36,123.77c0,0-11.39-40.17-16.13-53.12c-4.94-13.51-19.71-49.85-19.71-49.85s21.42,4.38,29.18,15.37
	c27.67,38.91,27.17,117.28,27.17,117.28"/>
<linearGradient id="SVGID_1_" gradientUnits="userSpaceOnUse" x1="-9.6246" y1="4.1945" x2="-9.9348" y2="4.1064" gradientTransform="matrix(2.307073e-15 -37.6774 43.625 2.671261e-15 53.8984 -286.3992)">
	<stop  offset="0" style="stop-color:#1A1A1A"/>
	<stop  offset="1" style="stop-color:#F30000;stop-opacity:0"/>
</linearGradient>
<path class="st6" d="M221.92,80.18l1.16,2.22c0.6-0.5,1.21-0.91,1.92-1.21c5.9-2.42,14.72,5.39,18.04,13.56
	c0.1,0.25,0.4,0.91,0.86,1.71l-1.97-6.85c-4.28-8.72-11.64-13.86-17.14-11.59C223.74,78.46,222.73,79.22,221.92,80.18L221.92,80.18z
	"/>
<linearGradient id="SVGID_00000119101788333293999490000015191515230608705186_" gradientUnits="userSpaceOnUse" x1="-9.4286" y1="4.1518" x2="-9.5861" y2="4.1525" gradientTransform="matrix(2.307073e-15 -37.6774 43.625 2.671261e-15 49.4395 -294.9891)">
	<stop  offset="0" style="stop-color:#1A1A1A"/>
	<stop  offset="1" style="stop-color:#F30000;stop-opacity:0"/>
</linearGradient>
<path style="fill:url(#SVGID_00000119101788333293999490000015191515230608705186_);" d="M219.71,75.84l1.16,2.22
	c0.6-0.5,1.21-0.91,1.92-1.21c5.9-2.42,14.72,5.39,18.04,13.56c0.1,0.25,0.4,0.91,0.86,1.71l-1.97-6.85
	c-4.28-8.72-11.64-13.86-17.14-11.59C221.47,74.13,220.51,74.89,219.71,75.84L219.71,75.84z"/>
<linearGradient id="SVGID_00000118378828436550902350000000702376222975470007_" gradientUnits="userSpaceOnUse" x1="-9.6204" y1="4.21" x2="-10.4786" y2="4.1454" gradientTransform="matrix(2.307073e-15 -37.6774 43.625 2.671261e-15 48.0293 -301.169)">
	<stop  offset="0" style="stop-color:#1A1A1A"/>
	<stop  offset="1" style="stop-color:#F30000;stop-opacity:0"/>
</linearGradient>
<path style="fill:url(#SVGID_00000118378828436550902350000000702376222975470007_);" d="M219,72.72l1.16,2.22
	c0.6-0.5,1.21-0.91,1.92-1.21c5.9-2.42,14.72,5.39,18.04,13.56c0.1,0.25,0.4,0.91,0.86,1.71l-1.97-6.85
	c-4.28-8.72-11.64-13.86-17.14-11.59C220.76,71,219.81,71.76,219,72.72L219,72.72z"/>
<linearGradient id="SVGID_00000018935357965985677280000012862806727423821223_" gradientUnits="userSpaceOnUse" x1="-6.212" y1="5.9451" x2="-6.2931" y2="5.8848" gradientTransform="matrix(5.121791e-15 -83.6452 58.742 3.596912e-15 -107.3946 -454.9467)">
	<stop  offset="0" style="stop-color:#1A1A1A"/>
	<stop  offset="1" style="stop-color:#F30000;stop-opacity:0"/>
</linearGradient>
<path style="fill:url(#SVGID_00000018935357965985677280000012862806727423821223_);" d="M216.83,64.2l0.91,3.12
	c0.86-0.5,1.76-0.86,2.77-1.01c8.06-1.56,17.29,10.58,19.4,21.67c0.3,1.71,4.33,14.57,4.44,16.23h2.07l-6.1-20.87
	c-2.77-13.26-11.29-22.63-19.25-21.12C219.5,62.49,218.09,63.19,216.83,64.2L216.83,64.2z"/>
<linearGradient id="SVGID_00000103955488321067353230000010145423138113359512_" gradientUnits="userSpaceOnUse" x1="-6.3295" y1="5.9601" x2="-6.599" y2="5.5227" gradientTransform="matrix(5.121791e-15 -83.6452 58.742 3.596912e-15 -107.3946 -454.9467)">
	<stop  offset="0" style="stop-color:#1A1A1A"/>
	<stop  offset="1" style="stop-color:#F30000;stop-opacity:0"/>
</linearGradient>
<path style="fill:url(#SVGID_00000103955488321067353230000010145423138113359512_);" d="M216.83,64.2l0.91,3.12
	c0.86-0.5,1.76-0.86,2.77-1.01c8.06-1.56,17.29,10.58,19.4,21.67c0.3,1.71,4.33,14.57,4.44,16.23h2.07l-6.1-20.87
	c-2.77-13.26-11.29-22.63-19.25-21.12C219.5,62.49,218.09,63.19,216.83,64.2L216.83,64.2z"/>
<linearGradient id="SVGID_00000111168895428763187500000002427723072210866338_" gradientUnits="userSpaceOnUse" x1="-9.8716" y1="3.303" x2="-10.978" y2="3.3175" gradientTransform="matrix(2.060926e-15 -33.6575 38.9712 2.386297e-15 105.0543 -260.93)">
	<stop  offset="0" style="stop-color:#1A1A1A"/>
	<stop  offset="1" style="stop-color:#F30000;stop-opacity:0"/>
</linearGradient>
<path style="fill:url(#SVGID_00000111168895428763187500000002427723072210866338_);" d="M224.29,86.63l1.06,2.02
	c0.5-0.45,1.11-0.81,1.71-1.06c5.29-2.17,13.15,4.84,16.13,12.1c0.1,0.25,0.4,0.81,0.76,1.51l-1.76-6.15
	c-3.83-7.76-10.38-12.35-15.32-10.33C225.85,85.12,225,85.77,224.29,86.63L224.29,86.63z"/>
<linearGradient id="SVGID_00000036249623634275346610000013648525755429513135_" gradientUnits="userSpaceOnUse" x1="-9.7781" y1="3.2939" x2="-10.6857" y2="3.2477" gradientTransform="matrix(2.060926e-15 -33.6575 38.9713 2.386303e-15 108.6276 -247.1199)">
	<stop  offset="0" style="stop-color:#1A1A1A"/>
	<stop  offset="1" style="stop-color:#F30000;stop-opacity:0"/>
</linearGradient>
<path style="fill:url(#SVGID_00000036249623634275346610000013648525755429513135_);" d="M226.06,93.58l1.06,2.02
	c0.5-0.45,1.11-0.81,1.71-1.06c5.29-2.17,13.15,4.84,16.13,12.1c0.1,0.25,0.4,0.81,0.76,1.51l-1.76-6.15
	c-3.83-7.81-10.38-12.35-15.32-10.33C227.67,92.07,226.81,92.73,226.06,93.58L226.06,93.58z"/>
<linearGradient id="SVGID_00000131344821900355977580000018107759189107936156_" gradientUnits="userSpaceOnUse" x1="-0.5029" y1="0.594" x2="-1.0069" y2="0.4348" gradientTransform="matrix(1.415593e-15 -23.1184 28.9028 1.769784e-15 227.9796 379.5152)">
	<stop  offset="0" style="stop-color:#1A1A1A"/>
	<stop  offset="1" style="stop-color:#F30000;stop-opacity:0"/>
</linearGradient>
<path style="fill:url(#SVGID_00000131344821900355977580000018107759189107936156_);" d="M235.98,401.08
	c-1.01-4.18-0.76-7.81,2.92-9.98l9.02,1.26c3.12,3.48,2.52,6.96,0.1,10.38L235.98,401.08L235.98,401.08z"/>
<linearGradient id="SVGID_00000146474599555311776120000015127599048937653168_" gradientUnits="userSpaceOnUse" x1="-0.8041" y1="-0.5256" x2="-1.3081" y2="-0.5943" gradientTransform="matrix(1.347362e-15 -22.0041 26.1996 1.604264e-15 258.805 363.5428)">
	<stop  offset="0" style="stop-color:#1A1A1A"/>
	<stop  offset="1" style="stop-color:#F30000;stop-opacity:0"/>
</linearGradient>
<path style="fill:url(#SVGID_00000146474599555311776120000015127599048937653168_);" d="M237.65,390.84
	c-0.6-4.13-0.3-7.66,2.77-9.48l8.57,1.21c1.51,3.28,2.62,6.55,0.05,9.88L237.65,390.84L237.65,390.84z"/>
<g>
	<path class="st15" d="M239.56,316.86c0,16.88,0.91,33.01,2.57,47.93l0.2,1.86l1.61-0.86c6.4-3.38,10.63-8.37,13.31-14.67
		c2.67-6.3,3.83-13.91,4.23-22.73c0.81-17.64-1.31-40.32-1.01-67.33c0.3-25.05,0.96-45.11,1.21-61.24l-2.42-0.55
		C247.37,223.36,239.56,266.96,239.56,316.86L239.56,316.86z M242.08,316.86c0-45.97,6.8-86.59,16.98-110.93
		c-0.3,15.12-0.81,32.86-1.06,55.09c-0.3,27.17,1.86,49.9,1.01,67.23c-0.4,8.67-1.56,16.03-4.08,21.87
		c-2.27,5.29-5.64,9.32-10.53,12.35C242.89,348.21,242.08,332.88,242.08,316.86L242.08,316.86z"/>
	<g>
		<path class="st16" d="M115.88,387.32l6.3,39.16c2.22,13.71,24.6,24.65,52.82,25.7c28.27-1.06,50.65-12,52.82-25.7l6.3-39.16
			c0-6.7-5.39-12.1-12.1-12.1h-94.05C121.27,375.22,115.88,380.61,115.88,387.32L115.88,387.32z"/>
		<path class="st16" d="M98.64,169.89c0,1.51,0.15,2.97,0.5,4.44l0,0l6.2,32.16c3.33,8.92,7.21,16.13,16.13,16.13h107.15
			c8.92,0,12.8-7.21,16.13-16.13l6.2-32.16l0,0c0.3-1.46,0.5-2.92,0.5-4.44c0-22.88-28.93-41.43-76.36-41.48
			C127.52,128.46,98.64,147.01,98.64,169.89L98.64,169.89L98.64,169.89z"/>
	</g>
</g>
<path class="st2" d="M109.23,316.86c0,16.83-0.91,32.91-2.57,47.78c-24.54-12.95-15.27-49.39-15.88-103.62
	c-0.3-25.05-0.96-45.11-1.21-61.24C101.31,223.57,109.23,267.06,109.23,316.86L109.23,316.86z"/>
<path class="st3" d="M109.23,316.86c0,1.61,0,3.23-0.05,4.84c-8.16-0.4-15.27-3.23-19.56-7.36c0.05-2.37,0.1-4.79,0.15-7.26
	c4.13,4.33,11.19,7.36,19.45,7.91C109.23,315.6,109.23,316.2,109.23,316.86L109.23,316.86z"/>
<path class="st4" d="M123.19,20.15l-0.3,2.57c-1.26,10.84-13.1,19-27.47,19.81l-3.58,0.2l2.42-2.62
	c7.41-8.01,16.38-14.26,26.61-18.85L123.19,20.15L123.19,20.15z"/>
<path class="st5" d="M117.64,123.77c0,0,11.39-40.17,16.13-53.12c4.94-13.51,19.71-49.85,19.71-49.85s-21.42,4.38-29.18,15.37
	C96.63,75.09,97.13,153.46,97.13,153.46"/>
<linearGradient id="SVGID_00000047751795118391056040000006148099758567002027_" gradientUnits="userSpaceOnUse" x1="-9.6246" y1="6.6274" x2="-9.9349" y2="6.7155" gradientTransform="matrix(2.307073e-15 -37.6774 43.625 2.671261e-15 -176.0059 -286.3992)">
	<stop  offset="0" style="stop-color:#1A1A1A"/>
	<stop  offset="1" style="stop-color:#F30000;stop-opacity:0"/>
</linearGradient>
<path style="fill:url(#SVGID_00000047751795118391056040000006148099758567002027_);" d="M128.08,80.18l-1.16,2.22
	c-0.6-0.5-1.21-0.91-1.92-1.21c-5.9-2.42-14.72,5.39-18.04,13.56c-0.1,0.25-0.4,0.91-0.86,1.71l1.97-6.85
	c4.28-8.72,11.64-13.86,17.14-11.59C126.31,78.46,127.27,79.22,128.08,80.18L128.08,80.18z"/>
<linearGradient id="SVGID_00000063635758376616885320000017738483488147796927_" gradientUnits="userSpaceOnUse" x1="-9.4286" y1="6.6701" x2="-9.5861" y2="6.6694" gradientTransform="matrix(2.307073e-15 -37.6774 43.625 2.671261e-15 -171.5449 -294.9891)">
	<stop  offset="0" style="stop-color:#1A1A1A"/>
	<stop  offset="1" style="stop-color:#F30000;stop-opacity:0"/>
</linearGradient>
<path style="fill:url(#SVGID_00000063635758376616885320000017738483488147796927_);" d="M130.29,75.84l-1.16,2.22
	c-0.6-0.5-1.21-0.91-1.92-1.21c-5.9-2.42-14.72,5.39-18.04,13.56c-0.1,0.25-0.4,0.91-0.86,1.71l1.97-6.85
	c4.28-8.72,11.64-13.86,17.14-11.59C128.53,74.13,129.49,74.89,130.29,75.84L130.29,75.84z"/>
<linearGradient id="SVGID_00000158740013001815035130000014398452379866811566_" gradientUnits="userSpaceOnUse" x1="-9.6204" y1="6.6119" x2="-10.4787" y2="6.6765" gradientTransform="matrix(2.307073e-15 -37.6774 43.625 2.671261e-15 -170.1348 -301.169)">
	<stop  offset="0" style="stop-color:#1A1A1A"/>
	<stop  offset="1" style="stop-color:#F30000;stop-opacity:0"/>
</linearGradient>
<path style="fill:url(#SVGID_00000158740013001815035130000014398452379866811566_);" d="M131,72.72l-1.16,2.22
	c-0.6-0.5-1.21-0.91-1.92-1.21c-5.9-2.42-14.72,5.39-18.04,13.56c-0.1,0.25-0.4,0.91-0.86,1.71l1.97-6.85
	c4.28-8.72,11.64-13.86,17.14-11.59C129.24,71,130.24,71.76,131,72.72L131,72.72z"/>
<linearGradient id="SVGID_00000087389255072073271770000001113817025033909401_" gradientUnits="userSpaceOnUse" x1="-6.212" y1="7.4961" x2="-6.2932" y2="7.5564" gradientTransform="matrix(5.121791e-15 -83.6452 58.742 3.596909e-15 -332.1583 -454.9467)">
	<stop  offset="0" style="stop-color:#1A1A1A"/>
	<stop  offset="1" style="stop-color:#F30000;stop-opacity:0"/>
</linearGradient>
<path style="fill:url(#SVGID_00000087389255072073271770000001113817025033909401_);" d="M133.17,64.2l-0.91,3.12
	c-0.86-0.5-1.76-0.86-2.77-1.01c-8.06-1.56-17.29,10.58-19.4,21.67c-0.3,1.71-4.33,14.57-4.44,16.23h-2.07l6.1-20.87
	c2.77-13.26,11.29-22.63,19.25-21.12C130.5,62.49,131.91,63.19,133.17,64.2L133.17,64.2z"/>
<linearGradient id="SVGID_00000011011103323739397780000002184004968312574885_" gradientUnits="userSpaceOnUse" x1="-6.3296" y1="7.4811" x2="-6.599" y2="7.9185" gradientTransform="matrix(5.121791e-15 -83.6452 58.742 3.596909e-15 -332.1583 -454.9467)">
	<stop  offset="0" style="stop-color:#1A1A1A"/>
	<stop  offset="1" style="stop-color:#F30000;stop-opacity:0"/>
</linearGradient>
<path style="fill:url(#SVGID_00000011011103323739397780000002184004968312574885_);" d="M133.17,64.2l-0.91,3.12
	c-0.86-0.5-1.76-0.86-2.77-1.01c-8.06-1.56-17.29,10.58-19.4,21.67c-0.3,1.71-4.33,14.57-4.44,16.23h-2.07l6.1-20.87
	c2.77-13.26,11.29-22.63,19.25-21.12C130.5,62.49,131.91,63.19,133.17,64.2L133.17,64.2z"/>
<linearGradient id="SVGID_00000011033518135848774270000009187011069422944185_" gradientUnits="userSpaceOnUse" x1="-9.8716" y1="6.3037" x2="-10.978" y2="6.2892" gradientTransform="matrix(2.060926e-15 -33.6575 38.9712 2.386297e-15 -129.4379 -260.93)">
	<stop  offset="0" style="stop-color:#1A1A1A"/>
	<stop  offset="1" style="stop-color:#F30000;stop-opacity:0"/>
</linearGradient>
<path style="fill:url(#SVGID_00000011033518135848774270000009187011069422944185_);" d="M125.71,86.63l-1.06,2.02
	c-0.5-0.45-1.11-0.81-1.71-1.06c-5.29-2.17-13.15,4.84-16.13,12.1c-0.1,0.25-0.4,0.81-0.76,1.51l1.76-6.15
	c3.83-7.81,10.38-12.35,15.32-10.33C124.15,85.12,125,85.77,125.71,86.63L125.71,86.63z"/>
<linearGradient id="SVGID_00000150076974315159572050000018207240179050113683_" gradientUnits="userSpaceOnUse" x1="-9.7781" y1="6.3128" x2="-10.6857" y2="6.359" gradientTransform="matrix(2.060926e-15 -33.6575 38.9713 2.386304e-15 -133.0149 -247.1199)">
	<stop  offset="0" style="stop-color:#1A1A1A"/>
	<stop  offset="1" style="stop-color:#F30000;stop-opacity:0"/>
</linearGradient>
<path style="fill:url(#SVGID_00000150076974315159572050000018207240179050113683_);" d="M123.94,93.58l-1.06,2.02
	c-0.5-0.45-1.11-0.81-1.71-1.06c-5.29-2.17-13.15,4.84-16.13,12.1c-0.1,0.25-0.4,0.81-0.76,1.51l1.76-6.15
	c3.83-7.81,10.38-12.35,15.32-10.33C122.33,92.07,123.24,92.73,123.94,93.58L123.94,93.58z"/>
<linearGradient id="SVGID_00000128463129429383163860000006157810633627985342_" gradientUnits="userSpaceOnUse" x1="-0.5029" y1="5.0447" x2="-1.0069" y2="5.2039" gradientTransform="matrix(1.415593e-15 -23.1184 28.9028 1.769783e-15 -40.9549 379.5152)">
	<stop  offset="0" style="stop-color:#1A1A1A"/>
	<stop  offset="1" style="stop-color:#F30000;stop-opacity:0"/>
</linearGradient>
<path style="fill:url(#SVGID_00000128463129429383163860000006157810633627985342_);" d="M114.02,401.08
	c1.01-4.18,0.76-7.81-2.92-9.98l-9.02,1.26c-3.12,3.48-2.52,6.96-0.1,10.38L114.02,401.08L114.02,401.08z"/>
<linearGradient id="SVGID_00000002385816600861365850000002708929606116188320_" gradientUnits="userSpaceOnUse" x1="-0.8043" y1="4.5769" x2="-1.3083" y2="4.6457" gradientTransform="matrix(1.347362e-15 -22.0041 26.1996 1.604266e-15 -14.948 363.5428)">
	<stop  offset="0" style="stop-color:#1A1A1A"/>
	<stop  offset="1" style="stop-color:#F30000;stop-opacity:0"/>
</linearGradient>
<path style="fill:url(#SVGID_00000002385816600861365850000002708929606116188320_);" d="M112.35,390.84
	c0.6-4.13,0.3-7.66-2.77-9.48l-8.57,1.21c-1.51,3.28-2.62,6.55-0.05,9.88L112.35,390.84L112.35,390.84z"/>
<path class="st15" d="M110.44,316.86c0,16.88-0.91,33.01-2.57,47.93l-0.2,1.86l-1.61-0.86c-6.4-3.38-10.63-8.37-13.31-14.67
	c-2.67-6.3-3.83-13.91-4.23-22.73c-0.81-17.64,1.31-40.32,1.01-67.33c-0.3-25.05-0.96-45.11-1.21-61.24l2.42-0.55
	C102.63,223.36,110.44,266.96,110.44,316.86L110.44,316.86z M107.92,316.86c0-45.97-6.8-86.59-16.98-110.93
	c0.3,15.12,0.81,32.86,1.06,55.09c0.3,27.17-1.86,49.9-1.01,67.23c0.4,8.67,1.56,16.03,4.08,21.87c2.27,5.29,5.64,9.32,10.53,12.35
	C107.11,348.21,107.92,332.88,107.92,316.86L107.92,316.86z"/>
</svg>
