<svg id="Capa_1" enable-background="new 0 0 512 512" height="512" viewBox="0 0 512 512" width="512" xmlns="http://www.w3.org/2000/svg" xmlns:xlink="http://www.w3.org/1999/xlink"><linearGradient id="SVGID_1_" gradientUnits="userSpaceOnUse" x1="256" x2="256" y1="512" y2="0"><stop offset="0" stop-color="#6F6F6F"/><stop offset="1" stop-color="#6F6F6F"/></linearGradient><g><g><path d="m167.442 304.171c6.982 4.456 16.257 2.412 20.715-4.572 4.457-6.983 2.41-16.257-4.572-20.715-39.189-25.017-62.585-67.591-62.585-113.884 0-74.439 60.561-135 135-135s135 60.561 135 135c0 46.293-23.396 88.867-62.585 113.884-6.982 4.458-9.029 13.732-4.572 20.715 4.452 6.974 13.725 9.035 20.715 4.572 47.866-30.557 76.442-82.584 76.442-139.171 0-90.981-74.019-165-165-165s-165 74.019-165 165c0 56.587 28.576 108.614 76.442 139.171zm145.724-68.118c6.203 5.536 15.684 4.954 21.179-1.205 17.189-19.261 26.655-44.067 26.655-69.848 0-57.897-47.103-105-105-105s-105 47.103-105 105c0 25.781 9.466 50.587 26.655 69.849 5.516 6.182 14.998 6.719 21.179 1.205 6.181-5.516 6.72-14.998 1.204-21.179-12.276-13.759-19.038-31.471-19.038-49.875 0-41.355 33.645-75 75-75s75 33.645 75 75c0 18.404-6.762 36.116-19.038 49.874-5.516 6.181-4.977 15.663 1.204 21.179zm92.834 245.947h-77.687l-54.749-275.571c16.111-6.856 27.436-22.845 27.436-41.429 0-24.813-20.187-45-45-45s-45 20.187-45 45c0 18.584 11.325 34.573 27.436 41.429l-54.749 275.571h-77.687c-8.284 0-15 6.716-15 15s6.716 15 15 15h300c8.284 0 15-6.716 15-15s-6.716-15-15-15zm-150-332c8.271 0 15 6.729 15 15s-6.729 15-15 15-15-6.729-15-15 6.729-15 15-15zm-41.726 332 41.726-210.024 41.726 210.024z" fill="url(#SVGID_1_)"/></g></g></svg>