<?xml version="1.0" encoding="UTF-8" standalone="no"?>
<!-- Generator: Adobe Illustrator 16.0.0, SVG Export Plug-In . SVG Version: 6.00 Build 0)  -->

<svg
   version="1.1"
   id="Capa_1"
   x="0px"
   y="0px"
   width="512px"
   height="512px"
   viewBox="0 0 97.16 97.16"
   style="enable-background:new 0 0 97.16 97.16;"
   xml:space="preserve"
   sodipodi:docname="date_clock.svg"
   inkscape:version="1.2.1 (9c6d41e410, 2022-07-14)"
   xmlns:inkscape="http://www.inkscape.org/namespaces/inkscape"
   xmlns:sodipodi="http://sodipodi.sourceforge.net/DTD/sodipodi-0.dtd"
   xmlns="http://www.w3.org/2000/svg"
   xmlns:svg="http://www.w3.org/2000/svg"><defs
   id="defs43" /><sodipodi:namedview
   id="namedview41"
   pagecolor="#ffffff"
   bordercolor="#000000"
   borderopacity="0.25"
   inkscape:showpageshadow="2"
   inkscape:pageopacity="0.0"
   inkscape:pagecheckerboard="0"
   inkscape:deskcolor="#d1d1d1"
   showgrid="false"
   inkscape:zoom="1.1559539"
   inkscape:cx="-21.194617"
   inkscape:cy="256.93066"
   inkscape:window-width="1920"
   inkscape:window-height="1017"
   inkscape:window-x="-8"
   inkscape:window-y="-8"
   inkscape:window-maximized="1"
   inkscape:current-layer="Capa_1" />

<g
   id="g10">
</g>
<g
   id="g12">
</g>
<g
   id="g14">
</g>
<g
   id="g16">
</g>
<g
   id="g18">
</g>
<g
   id="g20">
</g>
<g
   id="g22">
</g>
<g
   id="g24">
</g>
<g
   id="g26">
</g>
<g
   id="g28">
</g>
<g
   id="g30">
</g>
<g
   id="g32">
</g>
<g
   id="g34">
</g>
<g
   id="g36">
</g>
<g
   id="g38">
</g>
<g
   transform="matrix(3.4594811,0,0,3.5507791,5.8490347,22.35426)"
   id="Shape"
   style="fill:none;fill-rule:evenodd;stroke:#000000;stroke-width:2;stroke-linecap:round;stroke-linejoin:round"><polyline
     points="12 7 12 12 16.9963184 12"
     id="polyline846"
     style="stroke:#6c6c6c;stroke-opacity:1" /></g><g
   id="g1012"
   transform="matrix(4.7875705,0,0,4.8249319,-9.0225666,-9.0780523)"><path
     id="primary"
     d="M 7.54,19 H 4 A 1,1 0 0 1 3,18 V 5 A 1,1 0 0 1 4,4 h 16 a 1,1 0 0 1 1,1 v 13 a 1,1 0 0 1 -1,1 h -3.54"
     style="fill:none;stroke:#6c6c6c;stroke-width:1.9999913;stroke-linecap:round;stroke-linejoin:round;fill-opacity:1;stroke-dasharray:none;stroke-opacity:1" /><path
     id="primary-2"
     data-name="primary"
     d="m 12,9 a 6,6 0 1 0 6,6 6,6 0 0 0 -6,-6 z M 3,9 h 18"
     style="fill:none;stroke:#6c6c6c;stroke-width:2;stroke-linecap:round;stroke-linejoin:round;stroke-opacity:1" /></g><path
   d="M 24.134391,1.8385851 V 20.816001 c 0,0.873257 1.518603,1.581451 3.391161,1.581451 h 3.391158 c 1.872558,0 3.391162,-0.708194 3.391162,-1.581451 V 1.8385851 c 0,-0.87325829 -1.518604,-1.58145126 -3.391162,-1.58145126 h -3.391158 c -1.872558,0 -3.391161,0.70819297 -3.391161,1.58145126 z"
   id="path1041"
   style="stroke-width:0.072369;fill:#6c6c6c;fill-opacity:1" /><path
   d="M 61.727875,1.8385849 V 20.816001 c 0,0.873257 1.5186,1.581451 3.39116,1.581451 h 3.39115 c 1.87256,0 3.39117,-0.708194 3.39117,-1.581451 V 1.8385849 c 0,-0.87325803 -1.51861,-1.58145103 -3.39117,-1.58145103 h -3.39115 c -1.87256,0 -3.39116,0.708193 -3.39116,1.58145103 z"
   id="path1041-9"
   style="stroke-width:0.072369;fill:#6c6c6c;fill-opacity:1" /></svg>
