<?xml version="1.0" encoding="UTF-8" standalone="no"?>
<!-- Uploaded to: SVG Repo, www.svgrepo.com, Transformed by: SVG Repo Mixer Tools -->

<svg
   width="800px"
   height="800px"
   viewBox="0 0 48 48"
   fill="#556080"
   version="1.1"
   id="svg18753"
   sodipodi:docname="icon_return.svg"
   xml:space="preserve"
   inkscape:version="1.2.1 (9c6d41e410, 2022-07-14)"
   xmlns:inkscape="http://www.inkscape.org/namespaces/inkscape"
   xmlns:sodipodi="http://sodipodi.sourceforge.net/DTD/sodipodi-0.dtd"
   xmlns="http://www.w3.org/2000/svg"
   xmlns:svg="http://www.w3.org/2000/svg"><defs
     id="defs18757" /><sodipodi:namedview
     id="namedview18755"
     pagecolor="#ffffff"
     bordercolor="#000000"
     borderopacity="0.25"
     inkscape:showpageshadow="2"
     inkscape:pageopacity="0.0"
     inkscape:pagecheckerboard="0"
     inkscape:deskcolor="#d1d1d1"
     showgrid="false"
     inkscape:zoom="1.28375"
     inkscape:cx="399.61052"
     inkscape:cy="399.61052"
     inkscape:window-width="2560"
     inkscape:window-height="1377"
     inkscape:window-x="-8"
     inkscape:window-y="-8"
     inkscape:window-maximized="1"
     inkscape:current-layer="svg18753" /><g
     id="SVGRepo_bgCarrier"
     stroke-width="0" /><g
     id="SVGRepo_tracerCarrier"
     stroke-linecap="round"
     stroke-linejoin="round" /><g
     style="fill:#6F6F6F"
     id="g18830"
     transform="matrix(-0.06751977,0,0,-0.0717278,33.254096,41.387904)"><g
       id="g18821"
       style="fill:#6F6F6F">
	<path
   d="M 375.789,92.867 H 166.864 l 17.507,-42.795 c 3.724,-9.132 1,-19.574 -6.691,-25.744 -7.701,-6.166 -18.538,-6.508 -26.639,-0.879 L 9.574,121.71 c -6.197,4.304 -9.795,11.457 -9.563,18.995 0.231,7.533 4.261,14.446 10.71,18.359 l 147.925,89.823 c 8.417,5.108 19.18,4.093 26.481,-2.499 7.312,-6.591 9.427,-17.312 5.219,-26.202 l -19.443,-41.132 h 204.886 c 15.119,0 27.418,12.536 27.418,27.654 V 356.56 c 0,15.118 -12.299,27.19 -27.418,27.19 h -226.74 c -20.226,0 -36.623,16.396 -36.623,36.622 v 12.942 c 0,20.228 16.397,36.624 36.623,36.624 h 226.74 c 62.642,0 113.604,-50.732 113.604,-113.379 V 206.709 C 489.395,144.062 438.431,92.867 375.789,92.867 Z"
   id="path18819"
   style="fill:#6F6F6F" />
</g></g></svg>
