<!--?xml version="1.0" encoding="utf-8"?-->
<!-- Generator: Adobe Illustrator 18.1.1, SVG Export Plug-In . SVG Version: 6.00 Build 0)  -->

<svg version="1.1" id="_x31_0" xmlns="http://www.w3.org/2000/svg" xmlns:xlink="http://www.w3.org/1999/xlink" x="0px" y="0px" viewBox="0 0 512 512" style="width: 256px; height: 256px; opacity: 1;" xml:space="preserve">
<style type="text/css">
	.st0{fill:#40A1BA;}
</style>
<g>
	<path class="st0" d="M245.74,371.425c5.156,5.654,15.278,5.654,20.435,0l143.182-148.174c6.495-7.113,0.383-17.289-10.118-17.289
		h-79.134c-0.462,0-0.836-0.318-0.836-0.713v-60.432c0-0.392-0.375-0.709-0.841-0.709H193.49c-0.462,0-0.836,0.317-0.836,0.709
		v60.432c0,0.391-0.379,0.713-0.84,0.713h-79.13c-10.506,0-16.424,10.176-10.123,17.289L245.74,371.425z"></path>
	<path class="st0" d="M319.309,34.421c0-0.074-0.379-0.136-0.84-0.136H193.531c-0.461,0-0.836,0.062-0.836,0.136v30.286h126.614
		V34.421z"></path>
	<path class="st0" d="M319.309,0.07c0-0.042-0.379-0.07-0.84-0.07H193.531c-0.465,0-0.84,0.029-0.84,0.07v15.142h126.618V0.07z"></path>
	<path class="st0" d="M192.695,89.335v30.286h126.614V89.335c0-0.074-0.379-0.14-0.84-0.14H193.531
		C193.07,89.195,192.695,89.261,192.695,89.335z"></path>
	<path class="st0" d="M508.25,377.54h-39.034c-8.866,0-16.053,7.187-16.053,16.054v57.538c0,1.598-1.294,2.891-2.891,2.891H61.728
		c-1.598,0-2.891-1.294-2.891-2.891v-57.538c0-8.866-7.186-16.054-16.049-16.054H3.754c-1.598,0-2.895,1.298-2.895,2.891v128.678
		c0,1.594,1.298,2.891,2.895,2.891H508.25c1.598,0,2.891-1.298,2.891-2.891V380.431C511.141,378.838,509.848,377.54,508.25,377.54z"></path>
</g>
</svg>
