<?xml version="1.0" encoding="utf-8"?>
<!-- Svg Vector Icons : http://www.onlinewebfonts.com/icon -->
<!DOCTYPE svg PUBLIC "-//W3C//DTD SVG 1.1//EN" "http://www.w3.org/Graphics/SVG/1.1/DTD/svg11.dtd">
<svg version="1.1" xmlns="http://www.w3.org/2000/svg" xmlns:xlink="http://www.w3.org/1999/xlink" x="0px" y="0px" viewBox="0 0 1000 1000" enable-background="new 0 0 1000 1000" xml:space="preserve">
<metadata> Svg Vector Icons : http://www.onlinewebfonts.com/icon </metadata>
<g><path fill="#6F6F6F" d="M249.7,412.6c-34.2,33.4-63.8,61.9-92.7,90.9c-22.9,23-44.8,46.9-67.5,70.1c-22.5,23-47,25.3-66.1,7c-19-18.2-18-43.6,4.2-66.6c68.1-70.6,136.2-141.2,205.1-211c12.6-12.7,17.6-25.4,17.3-42.8c-0.8-56.1,0.5-112.2-0.6-168.3C248.9,65.3,260,47.4,282,33.9C321.9,9.5,366.2,2.7,411.4,2.1c67.1-0.9,134.3-0.5,201.5,1.6c37.7,1.2,74.5,9.8,107.2,30.6c20,12.8,31.1,29.1,30.6,54.5c-1.2,58.3-1.1,116.7,0.4,174.9c0.3,11.7,6,26,14.1,34.5c66.5,70,134.3,138.8,201.2,208.4c8.5,8.8,17.9,18.9,21.2,30.1c5.7,19.4,2.1,38.2-17.9,49.9c-19.7,11.5-37,6.9-52.1-8.1c-23.5-23.3-46.5-47.1-69.5-70.9c-26.2-27-52.1-54.1-78.3-81.1c-3.9-4-8.8-7.1-17.1-13.5c-1,14.7-2.3,25.2-2.3,35.8c-0.1,152.8-0.8,305.6,0.4,458.4c0.2,30.3-12.7,48.3-37,62c-34.3,19.3-72.1,26.8-110.5,27.8c-67.9,1.7-135.8,1.7-203.7,0c-40.6-1-80.4-8.6-116.4-30.2c-23-13.8-33.9-32.3-33.8-59.8c0.6-155,0.3-310,0.2-465.1C249.7,434.3,249.7,426.4,249.7,412.6z M500.6,645.8c-19.9,0-39.9,0-59.8,0c-67,0-67,0-98.6,58.6c-1.1,1.9-1.9,4-2.9,6c-7.7,15.2-2.6,22.7,13.6,26.9c99.1,26,198.1,25.6,297.1-0.3c14.1-3.7,19-11.9,12.5-24.3c-10.6-20.2-21.8-40.2-34.6-59c-3.4-5-13.7-7.3-20.8-7.5C571.5,645.4,536.1,645.8,500.6,645.8z M502.8,383.1c0,0.4,0,0.8,0,1.1c24.3,0,48.6,0.1,73,0c40.2-0.1,43.5-2.4,58.2-39.8c5.4-13.8,2-22-13.4-25.9c-80.1-20-160.1-20.3-239.9,0.5c-6.2,1.6-14.3,7.1-16,12.5c-4.4,13.6,24.1,51,38.8,51.3C436.4,383.6,469.6,383.1,502.8,383.1z M686.6,502.8c0.3,0,0.5,0,0.8,0c0-37.6,0.2-75.3-0.1-112.9c-0.1-10.1,0.5-23.2-16.6-17c-20,7.2-36.3,31.3-36.4,53.1c-0.1,48.7,0.8,97.4-0.4,146.1c-0.6,24.1,10.8,40.6,27.6,54.8c4.7,3.9,11.5,5.4,17.3,8c2.6-6.4,7.3-12.7,7.4-19.2C686.9,578,686.6,540.4,686.6,502.8z M314.5,502c0.3,0,0.6,0,0.9,0c0,38.3-0.3,76.6,0.3,114.9c0.1,6,3.9,11.9,6,17.8c5.9-2.3,12.9-3.2,17.4-7.1c16.7-14.2,27.9-30.6,27.1-54.8c-1.5-47.1-1.8-94.3,0.2-141.3c1-23.7-7.8-39.7-26.2-51.8c-5.7-3.8-13-5.2-19.6-7.8c-2,6.6-5.7,13.1-5.8,19.7C314.2,428.4,314.5,465.2,314.5,502z"/></g>
</svg>