<?xml version="1.0" encoding="iso-8859-1"?>
<!-- Generator: Adobe Illustrator 19.0.0, SVG Export Plug-In . SVG Version: 6.00 Build 0)  -->
<svg version="1.1" id="Capa_1" xmlns="http://www.w3.org/2000/svg" xmlns:xlink="http://www.w3.org/1999/xlink" x="0px" y="0px"
	 viewBox="0 0 512 512" style="enable-background:new 0 0 512 512;" xml:space="preserve">
<g>
	<path style="fill:#303C42;" d="M501.333,245.333H447.46c-5.388-97.341-83.443-175.405-180.793-180.793V10.667
		C266.667,4.771,261.896,0,256,0c-5.896,0-10.667,4.771-10.667,10.667V64.54c-97.35,5.388-175.405,83.452-180.793,180.793H10.667
		C4.771,245.333,0,250.104,0,256c0,5.896,4.771,10.667,10.667,10.667H64.54c5.388,97.341,83.443,175.405,180.793,180.793v53.874
		c0,5.896,4.771,10.667,10.667,10.667c5.896,0,10.667-4.771,10.667-10.667V447.46c97.35-5.388,175.405-83.452,180.793-180.793
		h53.874c5.896,0,10.667-4.771,10.667-10.667C512,250.104,507.229,245.333,501.333,245.333z M256,426.667
		c-94.104,0-170.667-76.563-170.667-170.667S161.896,85.333,256,85.333S426.667,161.896,426.667,256S350.104,426.667,256,426.667z"
		/>
	<path style="fill:#303C42;" d="M256,170.667c-47.063,0-85.333,38.281-85.333,85.333s38.271,85.333,85.333,85.333
		s85.333-38.281,85.333-85.333S303.063,170.667,256,170.667z"/>
	<path style="fill:#303C42;" d="M18.208,3.125c-4.167-4.167-10.917-4.167-15.083,0s-4.167,10.917,0,15.083l490.667,490.667
		c2.083,2.083,4.813,3.125,7.542,3.125c2.729,0,5.458-1.042,7.542-3.125c4.167-4.167,4.167-10.917,0-15.083L18.208,3.125z"/>
</g>
<linearGradient id="SVGID_1_" gradientUnits="userSpaceOnUse" x1="-49.0072" y1="641.1544" x2="-20.3991" y2="627.8143" gradientTransform="matrix(21.3333 0 0 -21.3333 996.3333 13791.667)">
	<stop  offset="0" style="stop-color:#FFFFFF;stop-opacity:0.2"/>
	<stop  offset="1" style="stop-color:#FFFFFF;stop-opacity:0"/>
</linearGradient>
<path style="fill:url(#SVGID_1_);" d="M398.754,383.671c28.154-31.452,46.221-72.118,48.706-117.004h53.874
	c5.896,0,10.667-4.771,10.667-10.667c0-5.896-4.771-10.667-10.667-10.667H447.46c-5.388-97.341-83.443-175.405-180.793-180.793
	V10.667C266.667,4.771,261.896,0,256,0c-5.896,0-10.667,4.771-10.667,10.667V64.54c-44.888,2.484-85.553,20.552-117.004,48.706
	L18.208,3.125c-4.167-4.167-10.917-4.167-15.083,0s-4.167,10.917,0,15.083l110.121,110.121
	c-28.154,31.452-46.221,72.118-48.706,117.004H10.667C4.771,245.333,0,250.104,0,256c0,5.896,4.771,10.667,10.667,10.667H64.54
	c5.388,97.341,83.443,175.405,180.793,180.793v53.874c0,5.896,4.771,10.667,10.667,10.667c5.896,0,10.667-4.771,10.667-10.667
	V447.46c44.888-2.484,85.553-20.552,117.004-48.706l110.121,110.121c2.083,2.083,4.813,3.125,7.542,3.125
	c2.729,0,5.458-1.042,7.542-3.125c4.167-4.167,4.167-10.917,0-15.083L398.754,383.671z M256,85.333
	c94.104,0,170.667,76.563,170.667,170.667c0,43.22-16.28,82.62-42.862,112.721l-60.672-60.672
	c11.234-14.452,18.201-32.37,18.201-52.049c0-47.052-38.271-85.333-85.333-85.333c-19.682,0-37.6,6.966-52.051,18.199
	l-60.671-60.671C173.38,101.613,212.78,85.333,256,85.333z M256,426.667c-94.104,0-170.667-76.563-170.667-170.667
	c0-43.22,16.28-82.62,42.862-112.721l60.672,60.672c-11.234,14.452-18.201,32.37-18.201,52.049
	c0,47.052,38.271,85.333,85.333,85.333c19.682,0,37.6-6.966,52.051-18.199l60.671,60.671C338.62,410.387,299.22,426.667,256,426.667
	z"/>
<g>
</g>
<g>
</g>
<g>
</g>
<g>
</g>
<g>
</g>
<g>
</g>
<g>
</g>
<g>
</g>
<g>
</g>
<g>
</g>
<g>
</g>
<g>
</g>
<g>
</g>
<g>
</g>
<g>
</g>
</svg>
