<?xml version="1.0" standalone="no"?>
<!DOCTYPE svg PUBLIC "-//W3C//DTD SVG 20010904//EN"
 "http://www.w3.org/TR/2001/REC-SVG-20010904/DTD/svg10.dtd">
<svg version="1.0" xmlns="http://www.w3.org/2000/svg"
 width="1188.000000pt" height="1280.000000pt" viewBox="0 0 1188.000000 1280.000000"
 preserveAspectRatio="xMidYMid meet">
<g transform="translate(0.000000,1280.000000) scale(0.100000,-0.100000)"
fill="#000000" stroke="none">
<path fill="#6F6F6F" d="M9680 12794 c0 -46 -84 -562 -93 -570 -6 -6 -44 -21 -83 -33 -40 -11
-112 -41 -162 -66 -49 -25 -92 -45 -94 -45 -3 0 -108 77 -234 170 l-229 170
-117 -117 c-65 -65 -116 -123 -114 -130 3 -6 79 -111 170 -232 l166 -221 -45
-89 c-25 -49 -57 -126 -71 -171 -19 -59 -32 -84 -48 -90 -18 -8 -504 -80 -535
-80 -8 0 -11 -52 -9 -172 l3 -172 260 -38 c143 -20 270 -40 281 -42 17 -5 27
-25 49 -93 15 -49 45 -123 68 -167 22 -43 40 -83 40 -90 0 -6 -75 -112 -166
-234 -133 -178 -165 -226 -158 -240 5 -9 57 -64 114 -121 71 -70 110 -102 120
-98 9 3 112 78 230 166 117 89 219 161 225 161 6 0 53 -20 104 -45 51 -25 125
-55 163 -67 39 -11 73 -23 77 -27 4 -4 25 -129 47 -279 22 -149 43 -276 46
-282 4 -6 69 -10 166 -10 156 0 160 0 168 23 5 12 25 139 45 282 21 143 40
263 44 267 4 3 39 15 77 27 39 11 112 41 163 66 52 25 98 45 104 45 5 0 110
-74 233 -165 122 -91 227 -165 231 -165 11 0 234 222 234 232 0 4 -74 107
-165 230 -91 122 -165 228 -165 235 0 7 17 48 39 91 21 42 48 109 61 147 12
39 25 79 30 90 7 19 34 25 271 59 145 21 272 40 282 43 15 4 17 21 17 174 0
128 -3 169 -12 169 -29 1 -537 78 -546 83 -5 4 -21 45 -37 92 -15 48 -47 124
-71 171 l-44 84 166 221 c91 121 167 226 170 232 2 7 -49 65 -114 130 l-119
119 -219 -164 c-120 -90 -224 -167 -231 -171 -7 -4 -51 12 -100 36 -48 25
-122 55 -163 68 -41 12 -80 28 -87 33 -9 8 -93 519 -93 567 0 5 -76 9 -170 9
-93 0 -170 -3 -170 -6z m334 -1034 c123 -31 209 -81 306 -179 133 -134 192
-275 193 -461 1 -255 -140 -484 -365 -594 -203 -99 -390 -99 -595 0 -198 95
-334 288 -362 514 -26 204 41 394 193 545 171 170 402 234 630 175z"/>
<path fill="#6F6F6F" d="M6880 11144 c-458 -30 -846 -103 -1238 -233 -227 -75 -514 -193 -516
-212 -1 -5 908 -1585 954 -1659 6 -9 36 -2 126 30 477 167 1011 201 1515 94
815 -171 1529 -713 1918 -1454 138 -264 250 -597 287 -852 l6 -48 973 0 972 0
-8 43 c-5 23 -18 114 -30 202 -112 847 -464 1660 -1011 2334 -39 47 -129 150
-200 229 -110 120 -134 142 -152 136 -11 -3 -25 -10 -30 -15 -5 -4 -30 -151
-55 -326 -26 -175 -50 -324 -54 -330 -6 -10 -113 -13 -480 -13 -260 0 -478 4
-485 9 -8 5 -29 114 -57 307 -25 164 -45 303 -45 308 0 16 -27 -3 -261 -176
-129 -96 -240 -178 -247 -182 -10 -6 -112 89 -353 330 -186 186 -339 345 -339
352 0 8 83 126 185 263 102 137 184 250 182 250 -1 1 -141 22 -312 48 l-310
46 -3 233 c-2 230 -3 233 -25 242 -66 28 -693 58 -907 44z"/>
<path fill="#6F6F6F" d="M4284 10201 c-481 -358 -912 -837 -1234 -1371 -108 -178 -289 -545
-325 -660 -8 -24 -7 -24 18 -7 15 9 32 17 39 17 8 0 166 -153 352 -339 l339
-340 -18 -28 c-10 -15 -92 -126 -182 -246 -148 -196 -183 -247 -172 -247 32
-2 611 -90 618 -95 8 -4 11 -161 11 -486 l0 -479 -22 -10 c-19 -7 -572 -90
-602 -90 -16 0 5 -32 151 -227 82 -109 164 -220 183 -246 l34 -48 -339 -339
c-187 -187 -346 -340 -353 -340 -7 0 -24 7 -37 16 -14 9 -25 12 -25 7 0 -35
164 -382 267 -568 313 -562 769 -1081 1299 -1481 62 -46 116 -84 121 -84 10 0
957 1635 961 1660 2 11 -25 40 -75 83 -43 35 -125 114 -183 173 -448 461 -717
1032 -791 1674 -15 134 -15 464 0 600 83 737 447 1409 1020 1883 22 19 32 34
28 46 -6 25 -950 1661 -958 1661 -3 0 -59 -40 -125 -89z"/>
<path fill="#6F6F6F" d="M1510 8058 c-2 -53 -79 -541 -87 -549 -6 -6 -49 -24 -97 -40 -47 -16
-122 -47 -166 -69 l-81 -41 -231 172 -230 172 -120 -120 -120 -120 134 -179
c73 -99 151 -203 172 -232 l38 -53 -46 -89 c-25 -50 -57 -128 -71 -174 -21
-68 -30 -85 -48 -89 -12 -3 -142 -22 -290 -43 l-267 -37 0 -168 0 -167 27 -6
c16 -3 143 -22 283 -41 140 -20 260 -42 266 -48 5 -7 21 -46 33 -87 13 -41 43
-114 67 -163 33 -65 42 -92 35 -105 -5 -9 -82 -114 -170 -232 l-162 -214 118
-118 c65 -65 121 -118 124 -118 4 0 107 74 228 165 122 91 227 165 233 165 6
0 52 -20 102 -44 50 -24 124 -54 164 -66 53 -16 76 -28 82 -44 5 -11 25 -138
46 -281 20 -143 42 -263 48 -267 20 -14 312 -9 324 5 5 6 26 131 47 277 21
146 42 270 47 277 5 6 45 23 89 37 44 14 116 44 160 66 44 22 87 40 95 40 8 0
113 -74 234 -165 121 -91 223 -165 227 -165 5 0 60 51 122 114 78 79 112 119
108 130 -3 8 -73 105 -155 214 -82 109 -155 207 -162 218 -12 19 -8 33 32 115
25 52 56 126 68 164 12 39 27 75 34 82 6 7 121 28 256 47 135 20 260 38 278
41 l32 6 0 169 c0 94 -4 170 -8 170 -32 0 -558 82 -563 88 -4 4 -16 39 -27 77
-12 39 -42 112 -67 163 -25 51 -45 97 -45 102 0 5 74 109 165 231 91 121 165
224 165 228 0 3 -53 59 -118 124 l-117 117 -229 -170 c-126 -93 -231 -170
-234 -170 -2 0 -33 16 -68 36 -35 20 -113 52 -172 73 l-107 36 -40 280 -41
280 -172 3 c-134 2 -172 0 -172 -10z m388 -1030 c105 -38 175 -83 258 -165
131 -130 201 -313 191 -498 -13 -235 -149 -446 -356 -554 -108 -56 -186 -75
-311 -75 -187 0 -328 60 -465 198 -131 132 -195 284 -195 465 0 183 65 337
195 466 89 89 167 136 285 172 64 20 93 22 200 20 105 -3 137 -7 198 -29z"/>
<path fill="#6F6F6F" d="M9935 5978 c-2 -7 -13 -62 -25 -123 -48 -248 -126 -474 -246 -715
-368 -739 -1040 -1281 -1839 -1484 -527 -134 -1111 -108 -1624 73 -80 28 -113
36 -120 27 -10 -12 -961 -1657 -961 -1662 0 -6 121 -58 275 -119 718 -283
1502 -383 2303 -294 l102 12 0 226 c0 167 3 231 13 243 9 11 93 26 307 57 162
23 298 41 303 41 19 0 -5 36 -156 238 -90 119 -173 232 -186 250 l-24 34 339
339 c186 186 346 339 354 339 9 0 125 -81 258 -180 133 -99 247 -180 252 -180
6 0 10 4 10 8 0 33 82 582 90 600 l10 22 472 0 c260 0 479 -4 485 -8 8 -5 31
-131 60 -332 l48 -325 29 -13 c27 -14 30 -12 73 29 25 24 91 96 147 159 646
727 1041 1595 1165 2565 11 83 22 158 26 168 7 16 -43 17 -964 17 -769 0 -972
-3 -976 -12z"/>
<path fill="#6F6F6F" d="M9676 3333 c-3 -16 -21 -138 -41 -273 -20 -135 -38 -252 -40 -261 -3
-9 -31 -23 -68 -33 -34 -10 -110 -40 -169 -68 -59 -28 -114 -48 -122 -45 -8 3
-111 78 -229 166 -117 89 -218 161 -223 161 -18 0 -237 -228 -231 -242 3 -7
77 -109 166 -227 89 -118 161 -220 161 -227 0 -7 -19 -53 -43 -102 -24 -48
-54 -123 -67 -165 -13 -42 -29 -78 -36 -81 -7 -3 -127 -21 -266 -41 -139 -20
-263 -40 -275 -45 -23 -9 -23 -13 -23 -169 0 -88 4 -162 9 -165 4 -3 131 -23
281 -45 150 -22 276 -43 280 -48 5 -4 22 -51 40 -103 17 -52 47 -123 66 -158
19 -34 34 -70 34 -79 0 -9 -72 -113 -161 -230 -88 -118 -162 -220 -165 -226
-2 -7 49 -65 114 -130 l118 -118 220 163 c120 90 224 167 231 171 7 4 50 -11
100 -36 48 -25 122 -55 163 -68 41 -12 80 -28 87 -33 8 -8 93 -527 93 -571 0
-3 77 -5 170 -5 100 0 170 4 170 9 0 52 82 557 92 567 7 6 45 21 84 33 40 11
113 41 163 67 53 26 96 42 104 38 6 -5 111 -82 231 -172 l219 -164 120 120
120 120 -171 232 -172 231 44 87 c24 48 54 121 67 162 12 41 28 81 35 89 9 9
103 27 276 52 145 21 269 39 276 39 9 0 12 41 12 170 0 128 -3 172 -12 174 -7
3 -134 21 -282 43 l-270 38 -36 106 c-20 58 -53 136 -73 173 -21 37 -34 73
-30 79 4 7 81 111 170 232 l163 219 -117 118 c-65 65 -123 116 -129 114 -6 -2
-108 -77 -227 -165 -119 -89 -221 -161 -227 -161 -6 0 -45 17 -88 39 -42 21
-115 51 -162 66 -47 15 -89 31 -93 35 -5 4 -26 128 -47 275 -22 148 -42 275
-44 282 -4 10 -43 13 -170 13 l-164 0 -6 -27z m301 -999 c312 -64 533 -331
535 -642 1 -119 -16 -190 -69 -301 -83 -173 -243 -304 -429 -351 -416 -107
-827 209 -828 635 -1 124 13 184 71 304 37 77 59 108 122 170 163 164 380 230
598 185z"/>
</g>
</svg>
