<svg xmlns:xlink="http://www.w3.org/1999/xlink" xmlns:inkscape="http://www.inkscape.org/namespaces/inkscape" xmlns:sodipodi="http://sodipodi.sourceforge.net/DTD/sodipodi-0.dtd" xmlns="http://www.w3.org/2000/svg" xmlns:svg="http://www.w3.org/2000/svg" xmlns:rdf="http://www.w3.org/1999/02/22-rdf-syntax-ns#" xmlns:cc="http://creativecommons.org/ns#" xmlns:dc="http://purl.org/dc/elements/1.1/" version="1.1" id="svg2" sodipodi:docname="object_online.svg" inkscape:version="1.2.1 (9c6d41e410, 2022-07-14)" x="0px" y="0px" width="1200" height="1200" viewBox="0 0 1200 1200" enable-background="new 0 0 1200 1200" xml:space="preserve"><metadata id="metadata8"><rdf:RDF><cc:Work rdf:about=""><dc:format>image/svg+xml</dc:format><dc:type rdf:resource="http://purl.org/dc/dcmitype/StillImage"/></cc:Work></rdf:RDF></metadata><defs id="defs6"><style type="text/css" id="style3022"/></defs><sodipodi:namedview pagecolor="#ffffff" bordercolor="#666666" borderopacity="1" objecttolerance="10" gridtolerance="10" guidetolerance="10" inkscape:pageopacity="0" inkscape:pageshadow="2" inkscape:window-width="1920" inkscape:window-height="1017" id="namedview4" showgrid="false" inkscape:zoom="0.49615326" inkscape:cx="600.62086" inkscape:cy="600.62086" inkscape:window-x="-8" inkscape:window-y="-8" inkscape:window-maximized="1" inkscape:current-layer="svg2" inkscape:showpageshadow="2" inkscape:pagecheckerboard="0" inkscape:deskcolor="#d1d1d1"/>

<path d="M 616.71503,383.25092 H 435.37925 c -22.28919,0 -40.29684,19.15724 -40.29684,42.86934 V 1154.899 c 0,23.7121 18.00765,42.8693 40.29684,42.8693 h 181.33578 c 22.28919,0 40.29684,-19.1572 40.29684,-42.8693 V 426.12026 c 0,-23.7121 -18.00765,-42.86934 -40.29684,-42.86934 z M 1004.5721,-2.5731148 H 823.23632 c -22.28918,0 -40.29682,19.1572348 -40.29682,42.8693378 V 1154.899 c 0,23.7121 18.00764,42.8693 40.29682,42.8693 h 181.33578 c 22.2892,0 40.2968,-19.1572 40.2968,-42.8693 V 40.296223 c 0,-23.712103 -18.0076,-42.8693378 -40.2968,-42.8693378 z M 228.85794,769.07496 H 47.522147 c -22.28919,0 -40.2968407,19.15724 -40.2968407,42.86934 v 342.9547 c 0,23.7121 18.0076507,42.8693 40.2968407,42.8693 H 228.85794 c 22.28918,0 40.29684,-19.1572 40.29684,-42.8693 V 811.9443 c 0,-23.7121 -18.00766,-42.86934 -40.29684,-42.86934 z" p-id="8306" id="path3026" style="fill:#91DC5A;stroke-width:1.29885"/></svg>