<?xml version="1.0" encoding="UTF-8" standalone="no"?>
<svg
   version="1.1"
   id="Capa_1"
   x="0px"
   y="0px"
   width="455.416px"
   height="455.416px"
   viewBox="0 0 455.416 455.416"
   style="enable-background:new 0 0 455.416 455.416;"
   xml:space="preserve"
   sodipodi:docname="odometer2.svg"
   inkscape:version="1.2.1 (9c6d41e410, 2022-07-14)"
   xmlns:inkscape="http://www.inkscape.org/namespaces/inkscape"
   xmlns:sodipodi="http://sodipodi.sourceforge.net/DTD/sodipodi-0.dtd"
   xmlns="http://www.w3.org/2000/svg"
   xmlns:svg="http://www.w3.org/2000/svg"
   xmlns:rdf="http://www.w3.org/1999/02/22-rdf-syntax-ns#"
   xmlns:cc="http://creativecommons.org/ns#"
   xmlns:dc="http://purl.org/dc/elements/1.1/"><metadata
   id="metadata47"><rdf:RDF><cc:Work
       rdf:about=""><dc:format>image/svg+xml</dc:format><dc:type
         rdf:resource="http://purl.org/dc/dcmitype/StillImage" /><dc:title /></cc:Work></rdf:RDF></metadata><defs
   id="defs45" /><sodipodi:namedview
   pagecolor="#ffffff"
   bordercolor="#666666"
   borderopacity="1"
   objecttolerance="10"
   gridtolerance="10"
   guidetolerance="10"
   inkscape:pageopacity="0"
   inkscape:pageshadow="2"
   inkscape:window-width="2560"
   inkscape:window-height="1377"
   id="namedview43"
   showgrid="false"
   inkscape:zoom="0.6536704"
   inkscape:cx="374.80663"
   inkscape:cy="423.76097"
   inkscape:window-x="-8"
   inkscape:window-y="-8"
   inkscape:window-maximized="1"
   inkscape:current-layer="Capa_1"
   inkscape:showpageshadow="2"
   inkscape:pagecheckerboard="0"
   inkscape:deskcolor="#d1d1d1" />

<g
   id="g12">
</g>
<g
   id="g14">
</g>
<g
   id="g16">
</g>
<g
   id="g18">
</g>
<g
   id="g20">
</g>
<g
   id="g22">
</g>
<g
   id="g24">
</g>
<g
   id="g26">
</g>
<g
   id="g28">
</g>
<g
   id="g30">
</g>
<g
   id="g32">
</g>
<g
   id="g34">
</g>
<g
   id="g36">
</g>
<g
   id="g38">
</g>
<g
   id="g40">
</g>
<g
   id="g757"
   transform="matrix(25.620588,0,0,28.154358,24.06966,3.0046789)"><rect
     width="16"
     height="16"
     id="icon-bound"
     fill="none"
     x="0"
     y="0" /></g><g
   id="road_fill"
   style="fill:none;fill-rule:nonzero;stroke:none;stroke-width:1"
   transform="matrix(21.60469,0,0,22.369601,-29.782829,-49.670533)"><path
     d="M 24,0 V 24 H 0 V 0 Z m -11.40651,23.257841 -0.01155,0.0017 -0.07106,0.03553 -0.019,0.0037 v 0 l -0.01516,-0.0037 -0.07106,-0.03553 c -0.0098,-0.0031 -0.01861,-4.89e-4 -0.02351,0.0054 l -0.0041,0.01092 -0.01709,0.427279 0.005,0.02039 0.01101,0.01222 0.103573,0.07398 0.01487,0.0039 v 0 l 0.01177,-0.0039 0.103575,-0.07398 0.0126,-0.01604 v 0 l 0.0034,-0.01656 -0.01709,-0.427279 c -0.002,-0.01013 -0.0085,-0.01653 -0.01607,-0.01799 z m 0.264901,-0.112555 -0.01384,0.002 -0.184705,0.09235 -0.01,0.01024 v 0 l -0.0027,0.01121 0.0179,0.429528 0.0048,0.01278 v 0 l 0.0085,0.0071 0.200954,0.09275 c 0.01209,0.0037 0.02289,-2.52e-4 0.02849,-0.008 l 0.004,-0.01406 -0.03415,-0.614631 c -0.0024,-0.01194 -0.01027,-0.01953 -0.01929,-0.02125 z m -0.715344,0.002 c -0.0098,-0.0049 -0.02087,-0.002 -0.02741,0.0053 l -0.0057,0.01394 -0.03415,0.614631 c -6.39e-4,0.0115 0.007,0.0207 0.01688,0.0234 l 0.01561,-0.0013 0.200955,-0.09275 0.0094,-0.0081 v 0 l 0.0039,-0.0118 0.0179,-0.429528 -0.0032,-0.01259 v 0 l -0.0095,-0.0089 z"
     id="MingCute"
     fill-rule="nonzero" /></g><style
   type="text/css"
   id="style73425">
	.st0{fill:#000000;}
</style><g
   id="g73431"
   transform="matrix(1.0888268,0,0,0.86929897,-52.325908,5.4030933)"
   style="fill:#808080">
	<path
   class="st0"
   d="m 311.508,354.916 5.72,-11.034 c 1.816,-3.546 3.506,-7.029 5.096,-10.582 3.117,-7.076 5.666,-14.261 7.271,-21.36 3.265,-14.331 1.566,-27.476 -7.146,-37.21 -8.712,-9.928 -23.097,-16.591 -37.966,-21.235 -31.654,-9.11 -64.024,-19.248 -95.343,-31.139 -7.862,-2.985 -15.686,-6.086 -23.479,-9.39 -7.676,-3.226 -15.998,-6.997 -23.612,-12.102 -7.527,-5.088 -15.421,-11.868 -19.496,-22.263 -2.019,-5.112 -2.549,-10.894 -1.87,-16.147 0.685,-5.267 2.4,-10.06 4.528,-14.331 4.426,-8.751 9.857,-15.063 14.751,-21.835 L 155.197,106.417 185.986,67.095 238.407,1.146 198.445,0 c 0,0 -91.026,83.709 -131.657,136.535 -35.324,45.914 -16.03,86.483 47.87,113.772 53.933,23.043 104.414,40.88 104.414,40.88 8.697,4.504 14.884,12.398 16.941,21.609 2.057,9.219 -0.218,18.812 -6.242,26.3 L 90.719,512 h 138.733 l 59.006,-112.868 z"
   id="path73427"
   style="fill:#808080" />
	<path
   class="st0"
   d="M 444.973,261.023 C 425.608,228.629 392.458,205.781 354.056,198.354 L 218.004,169.67 c -5.673,-1.091 -10.442,-4.691 -12.85,-9.694 -2.408,-4.995 -2.151,-10.786 0.678,-15.578 l 90.442,-141.6 -44.052,-1.262 -55.694,73.672 -29.752,39.96 -14.627,20.082 c -4.707,6.756 -9.897,13.435 -12.757,19.684 -3.046,6.46 -3.81,12.617 -1.612,17.728 2.119,5.237 7.301,10.107 13.551,14.02 6.328,4.005 13.287,7.02 21.002,10.044 7.59,3 15.289,5.845 23.043,8.572 31.155,10.948 62.536,19.956 95,28.459 16.645,4.956 34.264,11.595 48.299,26.402 6.842,7.41 11.946,17.143 13.886,27.219 1.995,10.084 1.341,20.012 -0.405,29.191 -1.839,9.172 -4.714,17.791 -8.089,26.004 -1.706,4.083 -3.546,8.128 -5.431,12.024 l -5.486,11.245 -21.983,44.8 L 261.284,512 H 401.91 l 53.192,-144.646 c 12.929,-35.176 9.235,-73.938 -10.129,-106.331 z"
   id="path73429"
   style="fill:#808080" />
</g></svg>
