<?xml version="1.0" encoding="UTF-8" standalone="no"?>
<svg
   class="icons-notext"
   version="1.1"
   id="svg76570"
   sodipodi:docname="operate_add.svg"
   xml:space="preserve"
   inkscape:version="1.2.1 (9c6d41e410, 2022-07-14)"
   width="110"
   height="110"
   xmlns:inkscape="http://www.inkscape.org/namespaces/inkscape"
   xmlns:sodipodi="http://sodipodi.sourceforge.net/DTD/sodipodi-0.dtd"
   xmlns="http://www.w3.org/2000/svg"
   xmlns:svg="http://www.w3.org/2000/svg"><defs
     id="defs76574" /><sodipodi:namedview
     id="namedview76572"
     pagecolor="#ffffff"
     bordercolor="#000000"
     borderopacity="0.25"
     inkscape:showpageshadow="2"
     inkscape:pageopacity="0.0"
     inkscape:pagecheckerboard="0"
     inkscape:deskcolor="#d1d1d1"
     showgrid="false"
     inkscape:zoom="2.0166667"
     inkscape:cx="52.066115"
     inkscape:cy="55.041321"
     inkscape:window-width="1920"
     inkscape:window-height="1017"
     inkscape:window-x="-8"
     inkscape:window-y="-8"
     inkscape:window-maximized="1"
     inkscape:current-layer="svg76570" /><style
     type="text/css"
     id="style76562">.crud-icon &gt; svg { position: relative; top: -1px; }
.crud-icon.light &gt; svg { fill: rgb(66, 66, 66); }
.crud-icon.medium &gt; svg { height: 26px; width: 26px; }
.icons-notext svg, .icons svg { position: relative; }</style><g
     style="fill:#2ca05a"
     id="g76593"
     transform="matrix(5,0,0,5,-4.5454546,-5.0413224)"><path
       fill-rule="evenodd"
       clip-rule="evenodd"
       d="M 2,4.5 C 2,3.11929 3.11929,2 4.5,2 h 15 C 20.8807,2 22,3.11929 22,4.5 v 15 C 22,20.8807 20.8807,22 19.5,22 H 4.5 C 3.11929,22 2,20.8807 2,19.5 Z m 10.5,1 c 0.5523,0 1,0.44772 1,1 v 4 h 4 c 0.5523,0 1,0.4477 1,1 v 1 c 0,0.5523 -0.4477,1 -1,1 h -4 v 4 c 0,0.5523 -0.4477,1 -1,1 h -1 c -0.5523,0 -1,-0.4477 -1,-1 v -4 h -4 c -0.55228,0 -1,-0.4477 -1,-1 v -1 c 0,-0.5523 0.44772,-1 1,-1 h 4 v -4 c 0,-0.55228 0.4477,-1 1,-1 z"
       fill="#000000"
       id="path76584"
       style="fill:#2ca05a" /></g></svg>
