<?xml version="1.0" encoding="UTF-8" standalone="no"?>
<svg
   class="icons-notext"
   style=""
   version="1.1"
   id="svg13223"
   sodipodi:docname="operate_view.svg"
   inkscape:version="1.2.1 (9c6d41e410, 2022-07-14)"
   xmlns:inkscape="http://www.inkscape.org/namespaces/inkscape"
   xmlns:sodipodi="http://sodipodi.sourceforge.net/DTD/sodipodi-0.dtd"
   xmlns="http://www.w3.org/2000/svg"
   xmlns:svg="http://www.w3.org/2000/svg">
  <defs
     id="defs13227" />
  <sodipodi:namedview
     id="namedview13225"
     pagecolor="#ffffff"
     bordercolor="#000000"
     borderopacity="0.25"
     inkscape:showpageshadow="2"
     inkscape:pageopacity="0.0"
     inkscape:pagecheckerboard="0"
     inkscape:deskcolor="#d1d1d1"
     showgrid="false"
     inkscape:zoom="4.0333333"
     inkscape:cx="150"
     inkscape:cy="74.876033"
     inkscape:window-width="1920"
     inkscape:window-height="1017"
     inkscape:window-x="-8"
     inkscape:window-y="-8"
     inkscape:window-maximized="1"
     inkscape:current-layer="svg13223" />
  <style
     type="text/css"
     id="style13215">.crud-icon &gt; svg { position: relative; top: -1px; }
.crud-icon.light &gt; svg { fill: rgb(66, 66, 66); }
.crud-icon.medium &gt; svg { height: 26px; width: 26px; }
.icons-notext svg, .icons svg { position: relative; }</style>
  <svg
     class="crud-icon medium undefined light"
     version="1.1"
     id="svg13221">
    <svg
       focusable="false"
       viewBox="0 0 24 24"
       aria-hidden="true"
       role="presentation"
       version="1.1"
       id="svg13219">
      <path
         fill="#424242"
         d="M12,9C10.34,9 9,10.34 9,12C9,13.66 10.34,15 12,15C13.66,15 15,13.66 15,12C15,10.34 13.66,9 12,9M12,17C9.24,17 7,14.76 7,12C7,9.24 9.24,7 12,7C14.76,7 17,9.24 17,12C17,14.76 14.76,17 12,17M12,4.5C7,4.5 2.73,7.61 1,12C2.73,16.39 7,19.5 12,19.5C17,19.5 21.27,16.39 23,12C21.27,7.61 17,4.5 12,4.5Z"
         id="path13217"
         style="fill:#666666" />
    </svg>
  </svg>
</svg>
