<svg xmlns:xlink="http://www.w3.org/1999/xlink" xmlns:inkscape="http://www.inkscape.org/namespaces/inkscape" xmlns:sodipodi="http://sodipodi.sourceforge.net/DTD/sodipodi-0.dtd" xmlns="http://www.w3.org/2000/svg" xmlns:svg="http://www.w3.org/2000/svg" xmlns:rdf="http://www.w3.org/1999/02/22-rdf-syntax-ns#" xmlns:cc="http://creativecommons.org/ns#" xmlns:dc="http://purl.org/dc/elements/1.1/" version="1.1" id="Layer_1" x="0px" y="0px" viewBox="0 0 392.533 392.533" style="enable-background:new 0 0 392.533 392.533;" xml:space="preserve" sodipodi:docname="state_temp.svg" inkscape:version="1.2.1 (9c6d41e410, 2022-07-14)" width="392.533"  height="392.533" ><metadata id="metadata55"><rdf:RDF><cc:Work rdf:about=""><dc:format>image/svg+xml</dc:format><dc:type rdf:resource="http://purl.org/dc/dcmitype/StillImage"/><dc:title/></cc:Work></rdf:RDF></metadata><defs id="defs53"/><sodipodi:namedview pagecolor="#ffffff" bordercolor="#666666" borderopacity="1" objecttolerance="10" gridtolerance="10" guidetolerance="10" inkscape:pageopacity="0" inkscape:pageshadow="2" inkscape:window-width="1920" inkscape:window-height="1017" id="namedview51" showgrid="false" inkscape:zoom="1.5167742" inkscape:cx="196.46959" inkscape:cy="196.46959" inkscape:window-x="-8" inkscape:window-y="-8" inkscape:window-maximized="1" inkscape:current-layer="Layer_1" inkscape:showpageshadow="2" inkscape:pagecheckerboard="0" inkscape:deskcolor="#d1d1d1"/>
<path style="fill:#ffffff" d="m 206.965,21.462996 c 19.329,0 35.103,15.774 35.103,35.103 V 191.871 c 0,4.073 2.263,7.822 5.883,9.632 33.487,17.325 52.234,52.752 47.838,90.24599 -4.784,40.663 -37.818,73.503 -78.481,78.028 -27.41,3.103 -54.238,-6.335 -73.568,-25.665 -16.937,-16.937 -26.18199,-39.305 -26.18199,-63.22399 0,-33.552 18.55399,-64 48.41999,-79.451 3.62,-1.875 5.883,-5.624 5.883,-9.632 V 56.629996 c 0.001,-19.394 15.775,-35.167 35.104,-35.167 z" id="path2"/>

<g id="g18" transform="matrix(-1.5837939,0,0,1.3028849,530.8399,4.6810436)" style="fill:#666666">
	
	<path style="fill:#666666" d="m 273.81,45.576 h 11.636 c 6.012,0 10.925,-4.848 10.925,-10.925 0,-6.012 -4.848,-10.925 -10.925,-10.925 H 273.81 c -6.012,0 -10.925,4.848 -10.925,10.925 0.064,6.076 4.913,10.925 10.925,10.925 z" id="path8"/>
	<path style="fill:#666666" d="m 273.81,89.083 h 33.487 c 6.012,0 10.925,-4.848 10.925,-10.925 0,-6.012 -4.848,-10.99 -10.925,-10.99 H 273.81 c -6.012,0 -10.925,4.848 -10.925,10.925 0.064,6.077 4.913,10.99 10.925,10.99 z" id="path10"/>
	<path style="fill:#666666" d="m 273.81,132.525 h 11.636 c 6.012,0 10.925,-4.848 10.925,-10.925 0,-6.012 -4.848,-10.925 -10.925,-10.925 H 273.81 c -6.012,0 -10.925,4.848 -10.925,10.925 0.064,6.077 4.913,10.925 10.925,10.925 z" id="path12"/>
	<path style="fill:#666666" d="M 307.297,154.246 H 273.81 c -6.012,0 -10.925,4.848 -10.925,10.925 0,6.012 4.848,10.925 10.925,10.925 h 33.487 c 6.012,0 10.925,-4.848 10.925,-10.925 -0.064,-6.076 -4.913,-10.925 -10.925,-10.925 z" id="path14"/>
	
</g>
<g id="g20" transform="matrix(-1,0,0,1,392.533,0)" style="fill:#999999">
</g>
<g id="g22" transform="matrix(-1,0,0,1,392.533,0)" style="fill:#999999">
</g>
<g id="g24" transform="matrix(-1,0,0,1,392.533,0)" style="fill:#999999">
</g>
<g id="g26" transform="matrix(-1,0,0,1,392.533,0)" style="fill:#999999">
</g>
<g id="g28" transform="matrix(-1,0,0,1,392.533,0)" style="fill:#999999">
</g>
<g id="g30" transform="matrix(-1,0,0,1,392.533,0)" style="fill:#999999">
</g>
<g id="g32" transform="matrix(-1,0,0,1,392.533,0)" style="fill:#999999">
</g>
<g id="g34" transform="matrix(-1,0,0,1,392.533,0)" style="fill:#999999">
</g>
<g id="g36" transform="matrix(-1,0,0,1,392.533,0)" style="fill:#999999">
</g>
<g id="g38" transform="matrix(-1,0,0,1,392.533,0)" style="fill:#999999">
</g>
<g id="g40" transform="matrix(-1,0,0,1,392.533,0)" style="fill:#999999">
</g>
<g id="g42" transform="matrix(-1,0,0,1,392.533,0)" style="fill:#999999">
</g>
<g id="g44" transform="matrix(-1,0,0,1,392.533,0)" style="fill:#999999">
</g>
<g id="g46" transform="matrix(-1,0,0,1,392.533,0)" style="fill:#999999">
</g>
<g id="g48" transform="matrix(-1,0,0,1,392.533,0)" style="fill:#999999">
</g>
<g id="g1293" transform="matrix(1.7016686,0,0,1.7033791,8.175477,1.9727775)" style="fill:#666666"><path d="m 133.735,146.855 h 0.771 V 20.152 C 134.506,9.023 125.483,0 114.353,0 103.223,0 94.201,9.023 94.201,20.152 v 126.703 h 0.771 c -14.135,7.106 -23.84,21.73 -23.84,38.63 0,23.871 19.351,43.222 43.222,43.222 23.871,0 43.222,-19.351 43.222,-43.222 -0.001,-16.9 -9.706,-31.524 -23.841,-38.63 z m -30.361,19.218 c -1.844,0.942 -17.594,9.677 -10.484,29.58 0.929,2.601 -0.427,5.462 -3.027,6.391 -0.556,0.199 -1.123,0.293 -1.682,0.293 -2.054,0 -3.979,-1.275 -4.709,-3.319 -8.211,-22.987 6.505,-37.452 15.433,-41.89 2.474,-1.228 5.475,-0.22 6.703,2.252 1.225,2.466 0.225,5.458 -2.234,6.693 z M 124.089,56.597 H 104.618 V 22.058 c 0,-5.368 4.367,-9.735 9.735,-9.735 5.368,0 9.735,4.367 9.735,9.735 v 34.539 z" id="path1240" style="fill:#666666"/><g id="g1242" style="fill:#666666">
</g><g id="g1244" style="fill:#666666">
</g><g id="g1246" style="fill:#666666">
</g><g id="g1248" style="fill:#666666">
</g><g id="g1250" style="fill:#666666">
</g><g id="g1252" style="fill:#666666">
</g><g id="g1254" style="fill:#666666">
</g><g id="g1256" style="fill:#666666">
</g><g id="g1258" style="fill:#666666">
</g><g id="g1260" style="fill:#666666">
</g><g id="g1262" style="fill:#666666">
</g><g id="g1264" style="fill:#666666">
</g><g id="g1266" style="fill:#666666">
</g><g id="g1268" style="fill:#666666">
</g><g id="g1270" style="fill:#666666">
</g></g></svg>