<svg xmlns:xlink="http://www.w3.org/1999/xlink" xmlns:inkscape="http://www.inkscape.org/namespaces/inkscape" xmlns:sodipodi="http://sodipodi.sourceforge.net/DTD/sodipodi-0.dtd" xmlns="http://www.w3.org/2000/svg" xmlns:svg="http://www.w3.org/2000/svg" xmlns:rdf="http://www.w3.org/1999/02/22-rdf-syntax-ns#" xmlns:cc="http://creativecommons.org/ns#" xmlns:dc="http://purl.org/dc/elements/1.1/" version="1.1" width="14" height="14" viewBox="0 0 14 14" id="svg2" sodipodi:docname="state_fuel.svg" inkscape:version="1.2.1 (9c6d41e410, 2022-07-14)">
  <sodipodi:namedview pagecolor="#ffffff" bordercolor="#666666" borderopacity="1" objecttolerance="10" gridtolerance="10" guidetolerance="10" inkscape:pageopacity="0" inkscape:pageshadow="2" inkscape:window-width="1920" inkscape:window-height="1017" id="namedview7" showgrid="false" inkscape:zoom="42.527422" inkscape:cx="7.0072435" inkscape:cy="9.5232671" inkscape:window-x="-8" inkscape:window-y="-8" inkscape:window-maximized="1" inkscape:current-layer="svg2" inkscape:showpageshadow="2" inkscape:pagecheckerboard="0" inkscape:deskcolor="#d1d1d1"/>
  <metadata id="metadata8">
    <rdf:RDF>
      <cc:Work rdf:about="">
        <dc:format>image/svg+xml</dc:format>
        <dc:type rdf:resource="http://purl.org/dc/dcmitype/StillImage"/>
        <dc:title/>
      </cc:Work>
    </rdf:RDF>
  </metadata>
  <defs id="defs6"/>
  <rect width="14" height="14" x="0" y="0" id="canvas" style="fill:none;stroke:none;visibility:hidden"/>
  <path d="M 9.3629249,0 8.8285527,0.71875 9.8438599,1.8125 c 0.030959,0.036212 0.073188,0.084693 0.1068745,0.125 L 9.7369855,2.21875 c -0.3421846,0.4002181 -0.096667,0.9181832 0.026719,1.0625 l 0.6412465,0.75 V 10 c 0,1 -0.335275,1 -0.4274976,1 -0.092223,0 -0.4274978,0 -0.4274978,-1 V 6 c 0,-1.2809084 -0.8549955,-2 -1.709991,-2 V 2 c 0,-0.5513036 -0.3631397,-1 -0.8549956,-1 H 1.8549955 C 1.3426454,1 1,1.4247267 1,2 V 14 H 7.8399642 V 5 c 0,0 0.8549955,0 0.8549955,1 v 4 c 0,2 1.0599362,2 1.2824933,2 0.235681,0 1.282493,0 1.282493,-2 V 3 c 0,-1 -0.244543,-1.2092161 -0.534372,-1.53125 z M 1.8549955,3 H 6.9849686 V 6 H 1.8549955 Z" id="fuel" style="fill:#808080;fill-opacity:1;stroke:none;stroke-width:0.92466"/>
</svg>