<svg xmlns:xlink="http://www.w3.org/1999/xlink" xmlns:inkscape="http://www.inkscape.org/namespaces/inkscape" xmlns:sodipodi="http://sodipodi.sourceforge.net/DTD/sodipodi-0.dtd" xmlns="http://www.w3.org/2000/svg" xmlns:svg="http://www.w3.org/2000/svg" xmlns:rdf="http://www.w3.org/1999/02/22-rdf-syntax-ns#" xmlns:cc="http://creativecommons.org/ns#" xmlns:dc="http://purl.org/dc/elements/1.1/" version="1.1" id="Layer_1" x="0px" y="0px" viewBox="0 0 512 512" style="enable-background:new 0 0 512 512;" xml:space="preserve" sodipodi:docname="state_route.svg" inkscape:version="1.2.1 (9c6d41e410, 2022-07-14)" width="512"  height="512" ><metadata id="metadata49"><rdf:RDF><cc:Work rdf:about=""><dc:format>image/svg+xml</dc:format><dc:type rdf:resource="http://purl.org/dc/dcmitype/StillImage"/><dc:title/></cc:Work></rdf:RDF></metadata><defs id="defs47"/><sodipodi:namedview pagecolor="#ffffff" bordercolor="#666666" borderopacity="1" objecttolerance="10" gridtolerance="10" guidetolerance="10" inkscape:pageopacity="0" inkscape:pageshadow="2" inkscape:window-width="1920" inkscape:window-height="1017" id="namedview45" showgrid="false" inkscape:zoom="1.6445312" inkscape:cx="256.00001" inkscape:cy="256.00001" inkscape:window-x="-8" inkscape:window-y="-8" inkscape:window-maximized="1" inkscape:current-layer="Layer_1" inkscape:showpageshadow="2" inkscape:pagecheckerboard="0" inkscape:deskcolor="#d1d1d1"/>
<g id="g12" style="fill:#808080">
	<g id="g10" style="fill:#808080">
		<g id="g8" style="fill:#808080">
			<path d="m 85.291,256 h 0.043 c 7.467,0 14.4,-3.904 18.24,-10.304 C 114.795,227.157 170.667,132.331 170.667,85.333 170.667,38.272 132.395,0 85.333,0 38.271,0 0,38.272 0,85.333 c 0,45.845 55.829,141.568 67.029,160.277 3.84,6.422 10.752,10.369 18.262,10.39 z" id="path2" style="fill:#666666"/>
			<path d="m 426.667,256 c -47.061,0 -85.333,38.272 -85.333,85.333 0,45.845 55.829,141.568 67.029,160.277 3.84,6.421 10.752,10.368 18.261,10.389 h 0.043 c 7.467,0 14.4,-3.904 18.24,-10.304 C 456.128,483.157 512,388.331 512,341.333 512,294.272 473.728,256 426.667,256 Z" id="path4" style="fill:#808080"/>
			<path d="M 85.333,341.333 H 160 c 29.419,0 53.333,-23.936 53.333,-53.333 0,-5.888 4.8,-10.667 10.667,-10.667 h 74.667 c 35.285,0 64,-28.715 64,-64 0,-35.285 -28.715,-64 -64,-64 h -85.333 c -11.797,0 -21.333,9.557 -21.333,21.333 0,11.776 9.535,21.334 21.332,21.334 h 85.333 c 11.776,0 21.333,9.579 21.333,21.333 0,11.755 -9.557,21.333 -21.333,21.333 H 224 c -29.419,0 -53.333,23.936 -53.333,53.333 0,5.888 -4.8,10.667 -10.667,10.667 H 85.333 c -35.285,0 -64,28.715 -64,64 0,35.285 28.715,64 64,64 h 192 c 11.797,0 21.333,-9.557 21.333,-21.333 0,-11.776 -9.535,-21.333 -21.333,-21.333 h -192 C 73.557,384 64,374.421 64,362.667 c 0,-11.754 9.557,-21.334 21.333,-21.334 z" id="path6" style="fill:#808080"/>
		</g>
	</g>
</g>
<g id="g14">
</g>
<g id="g16">
</g>
<g id="g18">
</g>
<g id="g20">
</g>
<g id="g22">
</g>
<g id="g24">
</g>
<g id="g26">
</g>
<g id="g28">
</g>
<g id="g30">
</g>
<g id="g32">
</g>
<g id="g34">
</g>
<g id="g36">
</g>
<g id="g38">
</g>
<g id="g40">
</g>
<g id="g42">
</g>
</svg>