<svg xmlns:xlink="http://www.w3.org/1999/xlink" xmlns:inkscape="http://www.inkscape.org/namespaces/inkscape" xmlns:sodipodi="http://sodipodi.sourceforge.net/DTD/sodipodi-0.dtd" xmlns="http://www.w3.org/2000/svg" xmlns:svg="http://www.w3.org/2000/svg" xmlns:rdf="http://www.w3.org/1999/02/22-rdf-syntax-ns#" xmlns:cc="http://creativecommons.org/ns#" xmlns:dc="http://purl.org/dc/elements/1.1/" version="1.1" id="Capa_1" x="0px" y="0px" width="124.105" height="124.105" viewBox="0 0 124.105 124.105" style="enable-background:new 0 0 124.105 124.105;" xml:space="preserve" sodipodi:docname="state_max_speed.svg" inkscape:version="1.2.1 (9c6d41e410, 2022-07-14)"><metadata id="metadata43"><rdf:RDF><cc:Work rdf:about=""><dc:format>image/svg+xml</dc:format><dc:type rdf:resource="http://purl.org/dc/dcmitype/StillImage"/></cc:Work></rdf:RDF></metadata><defs id="defs41"/><sodipodi:namedview pagecolor="#ffffff" bordercolor="#666666" borderopacity="1" objecttolerance="10" gridtolerance="10" guidetolerance="10" inkscape:pageopacity="0" inkscape:pageshadow="2" inkscape:window-width="1920" inkscape:window-height="1017" id="namedview39" showgrid="false" inkscape:zoom="2.3987103" inkscape:cx="17.092518" inkscape:cy="62.116712" inkscape:window-x="-8" inkscape:window-y="-8" inkscape:window-maximized="1" inkscape:current-layer="Capa_1" inkscape:showpageshadow="2" inkscape:pagecheckerboard="0" inkscape:deskcolor="#d1d1d1"/>

<g id="g8">
</g>
<g id="g10">
</g>
<g id="g12">
</g>
<g id="g14">
</g>
<g id="g16">
</g>
<g id="g18">
</g>
<g id="g20">
</g>
<g id="g22">
</g>
<g id="g24">
</g>
<g id="g26">
</g>
<g id="g28">
</g>
<g id="g30">
</g>
<g id="g32">
</g>
<g id="g34">
</g>
<g id="g36">
</g>
<text xml:space="preserve" style="font-style:normal;font-variant:normal;font-weight:bold;font-stretch:normal;font-size:44.3513px;font-family:sans-serif;-inkscape-font-specification:'sans-serif, Bold';font-variant-ligatures:normal;font-variant-caps:normal;font-variant-numeric:normal;font-variant-east-asian:normal;fill:#333333;stroke-width:3.69592" x="11.858698" y="126.60803" id="text489" transform="scale(1.0225977,0.97790169)"><tspan sodipodi:role="line" id="tspan487" x="11.858698" y="126.60803" style="font-style:normal;font-variant:normal;font-weight:bold;font-stretch:normal;font-size:44.3513px;font-family:sans-serif;-inkscape-font-specification:'sans-serif, Bold';font-variant-ligatures:normal;font-variant-caps:normal;font-variant-numeric:normal;font-variant-east-asian:normal;fill:#333333;stroke-width:3.69592">MAX</tspan></text><g id="g3990" transform="matrix(0.24485464,0,0,0.21397362,1.1180125,0.48391563)" style="fill:#666666"><path d="M 241,0 C 183.23828,3.316406 129.09375,25.742188 85.902344,64.242188 l 64.050776,64.046872 c 14.09375,-5.0039 29.25782,-7.73828 45.04688,-7.73828 16.14453,0 31.63672,2.85547 46,8.07813 z m 0,0" id="path3966" style="fill:#666666"/><path d="M 299.23047,169.84766 420.39062,59.304688 C 378.17969,23.824219 326.24609,3.171875 271,0 v 144.03906 c 10.58594,7.23438 20.09375,15.9336 28.23047,25.8086 z m 0,0" id="path3968" style="fill:#666666"/><path d="m 0,255.55469 v 15 h 60 v -15 c 0,-47.37891 24.535156,-89.12891 61.5625,-113.22657 L 64.691406,85.457031 C 22.875,132.36719 0,192.19922 0,255.55469 Z m 0,0" id="path3970" style="fill:#666666"/><path d="m 249.18567,292.49019 c -16.02734,0 -31.09765,6.24219 -42.42968,17.57422 -23.39063,23.39453 -23.39063,61.45703 0,84.85156 11.33203,11.33204 26.40234,17.57422 42.42968,17.57422 16.02344,0 31.09375,-6.24218 42.42578,-17.57422 23.39454,-23.39453 23.39454,-61.45703 0,-84.85156 -11.33203,-11.33203 -26.40234,-17.57422 -42.42578,-17.57422 z m 0,0" id="path3974" style="fill:#666666"/><path d="m 439.43595,111.57291 -196.54803,163.0721 c 20.5664,2.07031 39.87915,7.18537 54.69165,21.99787 15.17188,15.17187 23.76953,38.35759 25.82422,58.20134 l 164.09187,-179.47834 12.25217,-73.53461 z" id="path3976" sodipodi:nodetypes="ccscccc" style="fill:#666666"/></g></svg>