<?xml version="1.0" encoding="iso-8859-1"?>
<!-- Generator: Adobe Illustrator 19.0.0, SVG Export Plug-In . SVG Version: 6.00 Build 0)  -->
<svg version="1.1" id="Capa_1" xmlns="http://www.w3.org/2000/svg" xmlns:xlink="http://www.w3.org/1999/xlink" x="0px" y="0px"
	 viewBox="0 0 512.021 512.021" style="enable-background:new 0 0 512.021 512.021;" xml:space="preserve">
<g>
	<g>
		<path d="M501.333,405.344H448v32c0,5.888-4.779,10.667-10.667,10.667c-5.888,0-10.667-4.779-10.667-10.667v-32H384v32
			c0,5.888-4.779,10.667-10.667,10.667c-5.888,0-10.667-4.779-10.667-10.667v-32H320v53.333c0,5.888-4.779,10.667-10.667,10.667
			s-10.667-4.779-10.667-10.667v-53.333H256v32c0,5.888-4.779,10.667-10.667,10.667s-10.667-4.779-10.667-10.667v-32H192v32
			c0,5.888-4.779,10.667-10.667,10.667s-10.667-4.779-10.667-10.667v-32H128v53.333c0,5.888-4.779,10.667-10.667,10.667
			s-10.667-4.779-10.667-10.667v-53.333H53.333c-5.888,0-10.667-4.779-10.667-10.667s4.779-10.667,10.667-10.667h53.333v-42.667h-32
			c-5.888,0-10.667-4.779-10.667-10.667s4.779-10.667,10.667-10.667h32v-42.667h-32c-5.888,0-10.667-4.779-10.667-10.667
			s4.779-10.667,10.667-10.667h32v-42.667H53.333c-5.888,0-10.667-4.779-10.667-10.667s4.779-10.667,10.667-10.667h53.333v-42.667
			h-32c-5.888,0-10.667-4.779-10.667-10.667s4.779-10.667,10.667-10.667h32V85.344h-32C68.779,85.344,64,80.565,64,74.677
			s4.779-10.667,10.667-10.667h32V10.677c0-5.888-4.779-10.667-10.667-10.667H10.667C4.779,0.011,0,4.789,0,10.677v490.667
			c0,5.888,4.779,10.667,10.667,10.667H96h405.333c5.888,0,10.667-4.779,10.667-10.667v-85.333
			C512,410.123,507.221,405.344,501.333,405.344z" style="fill:#6F6F6F;"/>
	</g>
</g>
<g>
	<g>
		<path d="M292.8,350.496l-45.931-45.931c-5.867-5.867-15.872-3.093-17.899,4.949l-15.317,61.248
			c-0.896,3.627,0.171,7.488,2.816,10.133c2.005,2.048,4.736,3.136,7.531,3.136c0.853,0,1.728-0.107,2.581-0.32l61.269-15.317
			C295.893,366.389,298.667,356.363,292.8,350.496z" style="fill:#6F6F6F;"/>
	</g>
</g>
<g>
	<g>
		<path d="M502.656,128.523l-33.835-33.835c-12.437-12.437-32.811-12.437-45.248,0L267.989,250.272
			c-12.501,12.501-12.501,32.768,0,45.248l33.835,33.856c12.501,12.501,32.768,12.501,45.248,0l155.584-155.584
			c6.037-6.037,9.365-14.08,9.365-22.635S508.693,134.56,502.656,128.523z" style="fill:#6F6F6F;"/>
	</g>
</g>
<g>
</g>
<g>
</g>
<g>
</g>
<g>
</g>
<g>
</g>
<g>
</g>
<g>
</g>
<g>
</g>
<g>
</g>
<g>
</g>
<g>
</g>
<g>
</g>
<g>
</g>
<g>
</g>
<g>
</g>
</svg>
