<?xml version="1.0" encoding="iso-8859-1"?>
<!-- Generator: Adobe Illustrator 19.0.0, SVG Export Plug-In . SVG Version: 6.00 Build 0)  -->
<svg version="1.1" id="Capa_1" xmlns="http://www.w3.org/2000/svg" xmlns:xlink="http://www.w3.org/1999/xlink" x="0px" y="0px"
	 viewBox="0 0 512.001 512.001" style="enable-background:new 0 0 512.001 512.001;" xml:space="preserve">
<g>
	<g>
		<path d="M503.224,109.503L402.491,8.765c-5.653-5.653-13.06-8.764-20.865-8.764c-7.816,0-15.223,3.111-20.871,8.764L8.764,360.751
			C3.111,366.404,0,373.811,0,381.622c0,7.81,3.117,15.217,8.764,20.865l100.738,100.738c5.849,5.849,13.357,8.776,20.865,8.776
			c7.508,0,15.016-2.927,20.865-8.776l351.992-351.992C514.927,139.535,514.927,121.201,503.224,109.503z M130.367,473.809
			L38.18,381.622L381.621,38.181l92.188,92.188L130.367,473.809z" style="fill:#6F6F6F;"/>
	</g>
</g>
<g>
	<g>
		<path d="M264.421,356.609l-42.073-42.073c-6.939-6.945-18.198-6.945-25.143,0c-6.945,6.945-6.945,18.198,0,25.137l42.073,42.073
			c3.467,3.472,8.018,5.209,12.569,5.209s9.102-1.736,12.575-5.209C271.366,374.801,271.366,363.548,264.421,356.609z" style="fill:#6F6F6F;"/>
	</g>
</g>
<g>
	<g>
		<path d="M323.086,297.943l-42.079-42.079c-6.945-6.945-18.198-6.945-25.137,0c-6.945,6.939-6.945,18.198,0,25.137l42.079,42.079
			c3.473,3.473,8.018,5.209,12.569,5.209c4.545,0,9.096-1.736,12.569-5.209C330.031,316.142,330.031,304.883,323.086,297.943z" style="fill:#6F6F6F;"/>
	</g>
</g>
<g>
	<g>
		<path d="M381.745,239.272l-42.073-42.073c-6.945-6.939-18.192-6.939-25.137,0c-6.945,6.945-6.945,18.204,0,25.143l42.073,42.073
			c3.473,3.473,8.018,5.209,12.569,5.209s9.096-1.736,12.569-5.215C388.69,257.47,388.69,246.211,381.745,239.272z" style="fill:#6F6F6F;"/>
	</g>
</g>
<g>
	<g>
		<path d="M440.411,180.613l-42.079-42.073c-6.945-6.939-18.192-6.945-25.137,0c-6.945,6.945-6.945,18.198,0,25.143l42.079,42.073
			c3.473,3.467,8.018,5.203,12.569,5.203c4.551,0,9.102-1.736,12.569-5.203C447.356,198.811,447.356,187.558,440.411,180.613z" style="fill:#6F6F6F;"/>
	</g>
</g>
<g>
	<g>
		<path d="M131.552,333.03c-26.139,0-47.406,21.268-47.406,47.406s21.268,47.406,47.406,47.406
			c26.145,0,47.406-21.268,47.406-47.406C178.959,354.298,157.691,333.03,131.552,333.03z M131.552,392.288
			c-6.536,0-11.852-5.315-11.852-11.852s5.315-11.852,11.852-11.852c6.536,0,11.852,5.315,11.852,11.852
			S138.089,392.288,131.552,392.288z" style="fill:#6F6F6F;"/>
	</g>
</g>
<g>
</g>
<g>
</g>
<g>
</g>
<g>
</g>
<g>
</g>
<g>
</g>
<g>
</g>
<g>
</g>
<g>
</g>
<g>
</g>
<g>
</g>
<g>
</g>
<g>
</g>
<g>
</g>
<g>
</g>
</svg>
