<?xml version="1.0" encoding="UTF-8" standalone="no"?>
<svg
   xmlns:dc="http://purl.org/dc/elements/1.1/"
   xmlns:cc="http://creativecommons.org/ns#"
   xmlns:rdf="http://www.w3.org/1999/02/22-rdf-syntax-ns#"
   xmlns:svg="http://www.w3.org/2000/svg"
   xmlns="http://www.w3.org/2000/svg"
   xmlns:sodipodi="http://sodipodi.sourceforge.net/DTD/sodipodi-0.dtd"
   xmlns:inkscape="http://www.inkscape.org/namespaces/inkscape"
   fill="#000000"
   height="100"
   width="100"
   version="1.1"
   id="Capa_1"
   viewBox="0 0 27.511125 27.511125"
   xml:space="preserve"
   sodipodi:docname="trailer_door.svg"
   inkscape:version="1.0.2-2 (e86c870879, 2021-01-15)"><metadata
   id="metadata9"><rdf:RDF><cc:Work
       rdf:about=""><dc:format>image/svg+xml</dc:format><dc:type
         rdf:resource="http://purl.org/dc/dcmitype/StillImage" /><dc:title></dc:title></cc:Work></rdf:RDF></metadata><defs
   id="defs7" /><sodipodi:namedview
   pagecolor="#ffffff"
   bordercolor="#666666"
   borderopacity="1"
   objecttolerance="10"
   gridtolerance="10"
   guidetolerance="10"
   inkscape:pageopacity="0"
   inkscape:pageshadow="2"
   inkscape:window-width="1920"
   inkscape:window-height="1009"
   id="namedview5"
   showgrid="false"
   inkscape:zoom="5.9538391"
   inkscape:cx="49.535672"
   inkscape:cy="62.416213"
   inkscape:window-x="1912"
   inkscape:window-y="-3"
   inkscape:window-maximized="1"
   inkscape:current-layer="Capa_1"
   showguides="false" />
<g
   style="fill:#666666"
   id="g948"
   transform="matrix(0.09630752,0,0,0.16307009,1.7335298,2.4124564)"><g
     id="g936"
     style="fill:#666666">

<path
   class="st0"
   d="m 4.39,115.27 v 0 V 1.99 0 h 1.99 82.93 l -0.618429,119.7343 -2.71195,3.88975 -81.8518642,-0.53766 z M 13.88,8.32 c -11.245239,-8.56073489 -5.6226195,-4.2803674 0,0 z"
   id="path934"
   sodipodi:nodetypes="cccccccccccc"
   style="fill:#666666" />

</g></g><path
   d="m 20.322609,4.6246773 v -1.869157 c 0,-1.3531612 -1.073693,-2.45416254 -2.393575,-2.45416254 H 2.3935749 c -1.3197547,0 -2.39344694,1.10100134 -2.39344694,2.45416254 L 0,22.091397 c 0,0.887807 0.46371832,1.664753 1.1543055,2.095732 v 2.668014 c 0,0.362364 0.2864971,0.655981 0.639788,0.655981 h 2.0809744 c 0.353291,0 0.639788,-0.293617 0.639788,-0.655981 V 24.545558 H 15.807497 v 2.309585 c 0,0.362364 0.286497,0.655981 0.639788,0.655981 h 2.080846 c 0.353291,0 0.639788,-0.293617 0.639788,-0.655981 v -2.668014 c 0.690715,-0.430979 1.154433,-1.207925 1.154433,-2.095732 V 6.7395653 Z M 17.301523,22.030878 2.9264834,22.07729 C 2.5932836,22.07842 2.1767758,21.569988 2.1803656,21.228369 L 2.3695683,3.2231744 c 0.00359,-0.3416179 0.1764146,-0.7579334 0.5096144,-0.75689 l 14.6115433,0.04575 c 0.333201,0.00104 0.510624,0.4608713 0.509614,0.8026397 L 17.94699,21.364957 c 1.25e-4,0.341636 -0.312269,0.664845 -0.645465,0.665921 z"
   id="path2"
   sodipodi:nodetypes="cssscccssssccsssscsccssssssscs"
   style="fill:#4d4d4d;stroke-width:0.129567" />
<g
   style="fill:#666666"
   id="g917"
   transform="matrix(0.95680281,0,0,0.75707404,-14.374897,-4.3699305)"><path
     d="m 42.722372,6.4193697 c -9.054887,2.4989554 -9.43358,2.0830085 -9.432148,3.0043437 v 0 22.9995396 l 0.0041,2.384172 c 2.924801,0.05847 9.893766,-1.610098 9.893766,-1.610098 0.499822,-9.29e-4 0.588232,-0.699137 0.588956,-1.340336 V 7.5651648 7.5642356 c 0,-0.6411992 -0.404928,-1.1615928 -0.905475,-1.1615928 -0.05288,0 -0.10431,0.00557 -0.155017,0.016727 l 0.0051,-9.293e-4 z M 40.712103,30.482593 40.710286,9.9527225 41.281053,9.7648622 41.2283,30.338776 Z"
     id="path906"
     sodipodi:nodetypes="ccccccccsscccccccc"
     style="fill:#666666;stroke-width:0.820455" /></g><style
   type="text/css"
   id="style932">.st0{fill-rule:evenodd;clip-rule:evenodd;}</style><path
   d="M 6.1457359,19.485562 H 10.186319"
   stroke="#292d32"
   stroke-width="9.10827"
   stroke-linecap="round"
   stroke-linejoin="round"
   id="path962-2"
   style="fill:#ffffff;stroke:#ffffff;stroke-width:0.863751;stroke-miterlimit:4;stroke-dasharray:none;stroke-opacity:1" /><path
   d="M 8.4762787,24.360798 H 12.516861"
   stroke="#292d32"
   stroke-width="9.10827"
   stroke-linecap="round"
   stroke-linejoin="round"
   id="path962-2-9"
   style="fill:#666666;stroke:#4d4d4d;stroke-width:2.75111;stroke-miterlimit:4;stroke-dasharray:none;stroke-opacity:0.99607843" /><path
   d="M 8.8721758,24.00642 H 12.258589"
   stroke="#292d32"
   stroke-width="9.10827"
   stroke-linecap="round"
   stroke-linejoin="round"
   id="path962-2-9-8"
   style="fill:#ffffff;stroke:#ffffff;stroke-width:1.10704;stroke-miterlimit:4;stroke-dasharray:none;stroke-opacity:1" /></svg>
